<svg width="257" height="130" viewBox="0 0 257 130" fill="none" xmlns="http://www.w3.org/2000/svg">
<path fill-rule="evenodd" clip-rule="evenodd" d="M0 0H257V130H0V0Z" fill="white"/>
<path fill-rule="evenodd" clip-rule="evenodd" d="M56.1178 87.7057C43.9667 87.7057 37.9918 80.3047 35.662 72.5719C38.2927 85.1235 52.5068 97.4104 97.3531 102.891C139.723 108.07 167.335 95.0875 176.648 89.0464C176.648 89.0464 182.941 86.2771 179.165 90.5563C179.165 90.5563 152.481 115.226 100.122 115.478C47.762 115.73 6.22608 89.2984 6.47764 62.614C6.22608 35.9307 47.762 9.49866 100.122 9.75066C152.481 10.0027 179.165 34.672 179.165 34.672C182.941 38.952 176.648 36.1827 176.648 36.1827C167.335 30.14 139.841 18.2427 97.3531 22.3373C55.5656 26.3653 41.9251 40.5626 37.3943 50.128C35.6506 53.8093 34.8626 57.2813 34.6651 60.7776C35.7938 51.6506 41.4667 40.8893 56.1178 40.8893C72.714 40.8893 77.7922 54.6987 77.7922 64.2973C77.7922 73.8959 72.714 87.7057 56.1178 87.7057ZM224.825 78.4787H246.933V86.5292H215.536V42.0653H224.825V78.4787ZM190.715 62.5631H209.292V86.5292H203.1L202.171 80.9552C199.817 83.6803 196.412 87.7057 188.299 87.7057C177.585 87.7057 167.864 80.0265 167.864 64.4208C167.864 52.2827 174.613 40.8267 189.599 40.8893C203.224 40.8893 208.611 49.744 209.107 55.8747H199.817C199.817 54.1413 196.659 48.568 190.095 48.568C183.469 48.568 177.339 53.1507 177.339 64.5448C177.339 76.6823 183.964 79.8412 190.281 79.8412C192.324 79.8412 199.136 79.0355 201.056 70.0563H190.715V62.5631ZM56.1178 46.2147C46.4574 46.2147 40.6364 53.832 40.6364 64.2973C40.6364 74.763 46.4574 82.3797 56.1178 82.3797C65.7787 82.3797 71.5995 74.763 71.5995 64.2973C71.5995 53.832 65.7787 46.2147 56.1178 46.2147ZM81.1251 58.0948H85.6375V62.1177H85.7459C86.888 60.4869 89.0626 57.2787 94.2276 57.2787C101.784 57.2787 107.17 63.6844 107.17 71.6771C107.17 78.4724 103.253 87.3442 93.5751 87.3442C89.7694 87.3442 87.2683 85.5505 86.0183 83.5385H85.9094V97.7828H81.1251V58.0948ZM93.2146 83.2125C98.4339 83.2125 101.971 78.6901 101.971 72.4375C101.971 68.7948 100.5 61.5745 93.1058 61.5745C86.2016 61.5745 85.4402 69.0224 85.4402 73.6437C85.4402 81.2011 90.1698 83.2125 93.2146 83.2125ZM136.124 77.6125C135.96 78.9719 134.655 82.9953 131.067 85.3869C129.762 86.2568 127.914 87.3442 123.347 87.3442C115.355 87.3442 110.625 81.3099 110.625 73.1005C110.625 64.2921 114.866 57.2787 124.271 57.2787C132.481 57.2787 136.504 63.8036 136.504 73.8615H115.736C115.736 79.7869 118.508 83.2125 123.999 83.2125C128.511 83.2125 131.175 79.7328 131.339 77.6125H136.124ZM131.053 70.0552C130.781 65.6521 128.932 61.5745 123.115 61.5745C118.712 61.5745 115.232 65.6521 115.232 70.0552H131.053ZM162.945 86.5292H158.161V69.0224C158.161 64.0749 156.748 61.5745 152.072 61.5745C149.353 61.5745 144.569 63.314 144.569 71.0339V86.5292H139.784V58.0948H144.297V62.1177H144.405C145.439 60.5959 148.103 57.2787 152.996 57.2787C157.4 57.2787 162.945 59.0735 162.945 67.174V86.5292Z" fill="#E9E9E9"/>
<path fill-rule="evenodd" clip-rule="evenodd" d="M249.652 80.2307V80.6317H248.391V84.114H247.892V80.6317H246.62V80.2307H249.652ZM250.836 80.2307L251.804 83.3312H251.824L252.831 80.2307H253.575V84.114H253.135V80.6317H253.115L251.971 84.114H251.639L250.561 80.6317H250.543V84.114H250.103V80.2307H250.836Z" fill="#4386B5"/>
<path fill-rule="evenodd" clip-rule="evenodd" d="M56.0063 87.5902C43.8552 87.5902 37.8803 80.1886 35.5506 72.4563C38.1812 85.0083 52.3954 97.2948 97.2418 102.776C139.611 107.954 167.221 94.9719 176.536 88.9303C176.536 88.9303 182.829 86.1615 179.053 90.4412C179.053 90.4412 152.369 115.11 100.01 115.362C47.65 115.614 6.11463 89.1828 6.36619 62.499C6.11463 35.816 47.65 9.38271 100.01 9.63605C152.369 9.88805 179.053 34.5574 179.053 34.5574C182.829 38.836 176.536 36.0667 176.536 36.0667C167.221 30.0254 139.729 18.1267 97.2418 22.2227C55.4536 26.2494 41.8136 40.448 37.2823 50.0134C35.5386 53.6947 34.7506 57.1654 34.5531 60.662C35.6818 51.536 41.3552 40.7734 56.0063 40.7734C72.6027 40.7734 77.6807 54.584 77.6807 64.1818C77.6807 73.7807 72.6027 87.5902 56.0063 87.5902ZM224.713 78.3631C232.083 78.3626 239.452 78.3626 246.821 78.3631C246.821 81.0464 246.821 83.7298 246.821 86.4131C236.356 86.4131 225.889 86.4131 215.424 86.4131C215.424 71.5916 215.424 56.772 215.424 41.9494C218.52 41.9494 221.617 41.9494 224.713 41.9494C224.713 54.088 224.713 66.225 224.713 78.3631ZM190.603 62.4479C196.795 62.4474 202.988 62.4474 209.18 62.4479C209.18 70.436 209.18 78.4246 209.18 86.4131C207.116 86.4131 205.052 86.4131 202.988 86.4131C202.677 84.5552 202.368 82.6974 202.059 80.8402C199.705 83.5646 196.299 87.5902 188.187 87.5902C177.473 87.5902 167.751 79.911 167.751 64.3052C167.751 52.168 174.501 40.712 189.488 40.7734C203.111 40.7734 208.499 49.6294 208.995 55.76C205.899 55.76 202.801 55.76 199.705 55.76C199.705 54.0254 196.547 48.452 189.983 48.452C183.356 48.452 177.227 53.036 177.227 64.4292C177.227 76.5672 183.852 79.7255 190.169 79.7255C192.212 79.7255 199.024 78.9203 200.944 69.9412C197.496 69.9407 194.049 69.9407 190.603 69.9412C190.603 67.4432 190.603 64.9448 190.603 62.4479ZM56.0063 46.1C46.3459 46.1 40.5246 53.716 40.5246 64.1818C40.5246 74.6474 46.3459 82.264 56.0063 82.264C65.6667 82.264 71.488 74.6474 71.488 64.1818C71.488 53.716 65.6667 46.1 56.0063 46.1ZM81.0136 57.9798C82.5178 57.9798 84.0219 57.9798 85.526 57.9798C85.5266 59.3203 85.5266 60.661 85.526 62.0027C85.5626 62.0022 85.5984 62.0022 85.6344 62.0027C86.7766 60.3714 88.9506 57.164 94.1156 57.164C101.672 57.164 107.059 63.5694 107.059 71.5615C107.059 78.3574 103.141 87.2287 93.4636 87.2287C89.6579 87.2287 87.1568 85.435 85.9063 83.4235C85.8703 83.423 85.8339 83.423 85.7974 83.4235C85.7979 88.1708 85.7979 92.9188 85.7974 97.6678C84.2031 97.6672 82.6084 97.6672 81.0136 97.6678C81.0136 84.4375 81.0136 71.2083 81.0136 57.9798ZM93.1031 83.097C98.3224 83.097 101.86 78.5746 101.86 72.3224C101.86 68.6798 100.389 61.4588 92.9943 61.4588C86.0896 61.4588 85.3287 68.9074 85.3287 73.5287C85.3287 81.0855 90.0584 83.097 93.1031 83.097ZM136.011 77.497C135.848 78.8563 134.543 82.8798 130.955 85.2719C129.65 86.1416 127.802 87.2287 123.236 87.2287C115.243 87.2287 110.514 81.1943 110.514 72.9844C110.514 64.1771 114.754 57.164 124.16 57.164C132.368 57.164 136.392 63.6875 136.392 73.7459C129.469 73.7454 122.547 73.7454 115.624 73.7459C115.624 79.6719 118.397 83.097 123.888 83.097C128.4 83.097 131.064 79.6178 131.227 77.497C132.821 77.497 134.417 77.497 136.011 77.497ZM130.941 69.9402C130.669 65.5364 128.821 61.4588 123.004 61.4588C118.601 61.4588 115.12 65.5364 115.12 69.9402C120.394 69.9396 125.668 69.9396 130.941 69.9402ZM162.833 86.4131C161.239 86.4131 159.644 86.4131 158.049 86.4131C158.049 80.5776 158.049 74.7422 158.049 68.9074C158.049 63.9594 156.636 61.4588 151.96 61.4588C149.241 61.4588 144.457 63.1984 144.457 70.9188C144.457 76.0828 144.457 81.2484 144.457 86.4131C142.863 86.4131 141.267 86.4131 139.673 86.4131C139.673 76.935 139.673 67.4574 139.673 57.9798C141.177 57.9798 142.681 57.9798 144.185 57.9798C144.185 59.3203 144.185 60.661 144.185 62.0027C144.221 62.0022 144.257 62.0022 144.293 62.0027C145.327 60.4803 147.991 57.164 152.884 57.164C157.288 57.164 162.833 58.9579 162.833 67.0588C162.833 73.5099 162.833 79.9615 162.833 86.4131Z" fill="#E2E2E2"/>
<path fill-rule="evenodd" clip-rule="evenodd" d="M55.8943 87.4755C43.7432 87.4755 37.7677 80.0746 35.438 72.3416C38.0693 84.8932 52.2833 97.1803 97.1292 102.661C139.499 107.84 167.111 94.8574 176.424 88.8162C176.424 88.8162 182.717 86.047 178.941 90.326C178.941 90.326 152.259 114.996 99.8979 115.247C47.538 115.499 6.00208 89.0683 6.25364 62.3839C6.00208 35.7 47.538 9.26937 99.8979 9.52137C152.259 9.77204 178.941 34.4427 178.941 34.4427C182.717 38.7214 176.424 35.952 176.424 35.952C167.111 29.9107 139.617 18.012 97.1292 22.1067C55.3421 26.1347 41.7016 40.332 37.1703 49.8987C35.4265 53.58 34.6385 57.0507 34.4412 60.5474C35.5703 51.4214 41.2427 40.6587 55.8943 40.6587C72.4907 40.6587 77.5688 54.4694 77.5688 64.0672C77.5688 73.6656 72.4907 87.4755 55.8943 87.4755ZM224.601 78.2484C231.971 78.2479 239.34 78.2479 246.709 78.2484C246.709 80.9312 246.709 83.6146 246.709 86.299C236.243 86.2984 225.777 86.2984 215.312 86.299C215.312 71.4771 215.312 56.6574 215.312 41.836C218.408 41.836 221.505 41.836 224.601 41.836C224.601 53.9734 224.601 66.1099 224.601 78.2484ZM190.491 62.3328C196.683 62.3328 202.876 62.3328 209.068 62.3328C209.068 70.3214 209.068 78.3099 209.068 86.299C207.004 86.2984 204.94 86.2984 202.876 86.299C202.567 84.4407 202.256 82.5828 201.947 80.725C199.593 83.45 196.187 87.4755 188.075 87.4755C177.361 87.4755 167.64 79.7964 167.64 64.1907C167.64 52.0534 174.389 40.5974 189.376 40.6587C202.999 40.6587 208.387 49.5147 208.883 55.6454C205.785 55.6454 202.689 55.6454 199.593 55.6454C199.593 53.912 196.435 48.3387 189.871 48.3387C183.245 48.3387 177.115 52.9214 177.115 64.3146C177.115 76.4527 183.74 79.611 190.056 79.611C192.1 79.611 198.912 78.8058 200.832 69.826C197.384 69.8255 193.937 69.8255 190.491 69.826C190.491 67.3282 190.491 64.8303 190.491 62.3328ZM55.8943 45.9854C46.2339 45.9854 40.4125 53.6027 40.4125 64.0672C40.4125 74.5328 46.2339 82.1495 55.8943 82.1495C65.5552 82.1495 71.376 74.5328 71.376 64.0672C71.376 53.6027 65.5552 45.9854 55.8943 45.9854ZM80.9016 57.8651C82.4063 57.8651 83.9099 57.8651 85.414 57.8651C85.414 59.2058 85.414 60.5464 85.414 61.8875C85.4505 61.887 85.4864 61.887 85.5224 61.8875C86.6645 60.2568 88.8391 57.0494 94.0041 57.0494C101.561 57.0494 106.947 63.4542 106.947 71.447C106.947 78.2422 103.029 87.1146 93.3511 87.1146C89.5459 87.1146 87.0448 85.3203 85.7943 83.3083C85.7584 83.3079 85.7224 83.3079 85.6855 83.3083C85.686 88.0563 85.686 92.8047 85.6855 97.5527C84.0912 97.5522 82.4964 97.5522 80.9016 97.5527C80.9021 84.3235 80.9021 71.0932 80.9016 57.8651ZM92.9912 82.9823C98.2104 82.9823 101.748 78.4599 101.748 72.2079C101.748 68.5646 100.277 61.3443 92.8823 61.3443C85.9776 61.3443 85.2161 68.7922 85.2161 73.4136C85.2161 80.9708 89.9464 82.9823 92.9912 82.9823ZM135.9 77.3823C135.736 78.7416 134.431 82.7651 130.843 85.1568C129.538 86.0266 127.69 87.1146 123.123 87.1146C115.131 87.1146 110.402 81.0798 110.402 72.8703C110.402 64.0626 114.642 57.0494 124.047 57.0494C132.257 57.0494 136.28 63.5735 136.28 73.6312C129.357 73.6307 122.435 73.6307 115.512 73.6312C115.512 79.5568 118.285 82.9823 123.776 82.9823C128.287 82.9823 130.952 79.5027 131.115 77.3823C132.709 77.3823 134.304 77.3823 135.9 77.3823ZM130.829 69.8255C130.557 65.4219 128.709 61.3443 122.892 61.3443C118.488 61.3443 115.009 65.4219 115.009 69.8255C120.282 69.825 125.556 69.825 130.829 69.8255ZM162.721 86.299C161.127 86.2984 159.531 86.2984 157.937 86.299C157.937 80.4631 157.937 74.6276 157.937 68.7922C157.937 63.8448 156.524 61.3443 151.848 61.3443C149.129 61.3443 144.345 63.0839 144.345 70.8036C144.345 75.9688 144.345 81.1339 144.345 86.299C142.751 86.2984 141.155 86.2984 139.561 86.299C139.561 76.8203 139.561 67.3422 139.561 57.8651C141.065 57.8651 142.569 57.8651 144.073 57.8651C144.073 59.2058 144.073 60.5464 144.073 61.8875C144.109 61.887 144.145 61.887 144.181 61.8875C145.215 60.3656 147.879 57.0494 152.772 57.0494C157.176 57.0494 162.721 58.8438 162.721 66.9438C162.721 73.3954 162.721 79.847 162.721 86.299Z" fill="#DCDBDB"/>
<path fill-rule="evenodd" clip-rule="evenodd" d="M55.7823 87.3599C43.6312 87.3599 37.6563 79.9588 35.3265 72.2266C37.9573 84.7782 52.1713 97.0646 97.0172 102.546C139.387 107.724 166.997 94.7422 176.312 88.7006C176.312 88.7006 182.605 85.9318 178.829 90.2115C178.829 90.2115 152.145 114.881 99.7864 115.132C47.426 115.384 5.89011 88.9527 6.14219 62.2688C5.89011 35.5854 47.426 9.15338 99.7864 9.40538C152.145 9.65738 178.829 34.3267 178.829 34.3267C182.605 38.6067 176.312 35.8374 176.312 35.8374C166.997 29.796 139.505 17.8974 97.0172 21.992C55.2297 26.02 41.5896 40.2174 37.0584 49.784C35.3145 53.464 34.5265 56.936 34.3292 60.4323C35.4584 51.3067 41.1307 40.544 55.7823 40.544C72.3787 40.544 77.4568 54.3534 77.4568 63.9522C77.4568 73.5511 72.3787 87.3599 55.7823 87.3599ZM224.489 78.1334C231.859 78.1328 239.228 78.1328 246.597 78.1334C246.597 80.8167 246.597 83.4995 246.597 86.1834C236.132 86.1834 225.665 86.1834 215.2 86.1834C215.2 71.362 215.2 56.5414 215.2 41.72C218.296 41.72 221.393 41.72 224.489 41.72C224.489 53.8574 224.489 65.9954 224.489 78.1334ZM190.379 62.2178C196.571 62.2178 202.764 62.2178 208.956 62.2178C208.956 70.2058 208.956 78.1948 208.956 86.1834C206.892 86.1834 204.828 86.1834 202.764 86.1834C202.453 84.3255 202.144 82.4678 201.835 80.6104C199.481 83.335 196.076 87.3599 187.963 87.3599C177.249 87.3599 167.528 79.6812 167.528 64.0755C167.528 51.9387 174.277 40.4814 189.263 40.544C202.887 40.544 208.275 49.3987 208.771 55.5307C205.673 55.5307 202.577 55.5307 199.481 55.5307C199.481 53.796 196.323 48.2227 189.759 48.2227C183.133 48.2227 177.003 52.8054 177.003 64.1995C177.003 76.3375 183.628 79.4959 189.945 79.4959C191.988 79.4959 198.8 78.6907 200.72 69.711C197.273 69.711 193.825 69.711 190.379 69.711C190.379 67.2131 190.379 64.7151 190.379 62.2178ZM55.7823 45.8694C46.1219 45.8694 40.3005 53.4867 40.3005 63.9522C40.3005 74.4172 46.1219 82.0344 55.7823 82.0344C65.4427 82.0344 71.264 74.4172 71.264 63.9522C71.264 53.4867 65.4427 45.8694 55.7823 45.8694ZM80.7891 57.7495C82.2937 57.7495 83.7979 57.7495 85.3021 57.7495C85.3021 59.0907 85.3021 60.4312 85.3021 61.7724C85.3385 61.7724 85.3745 61.7724 85.4104 61.7724C86.5527 60.1416 88.7265 56.9334 93.8917 56.9334C101.449 56.9334 106.835 63.3391 106.835 71.3312C106.835 78.1276 102.917 86.999 93.2391 86.999C89.4339 86.999 86.9328 85.2052 85.6828 83.1938C85.6469 83.1932 85.6104 83.1932 85.5735 83.1938C85.574 87.9412 85.574 92.6891 85.5735 97.4375C83.9792 97.4375 82.3844 97.4375 80.7891 97.4375C80.7896 84.2079 80.7896 70.9787 80.7891 57.7495ZM92.8792 82.8672C98.0984 82.8672 101.636 78.3448 101.636 72.0927C101.636 68.45 100.164 61.2292 92.7703 61.2292C85.8656 61.2292 85.1041 68.6776 85.1041 73.299C85.1041 80.8558 89.8344 82.8672 92.8792 82.8672ZM135.788 77.2672C135.624 78.6266 134.319 82.65 130.731 85.0422C129.426 85.912 127.578 86.999 123.011 86.999C115.02 86.999 110.29 80.9646 110.29 72.7547C110.29 63.9474 114.53 56.9334 123.935 56.9334C132.145 56.9334 136.168 63.4579 136.168 73.5162C129.245 73.5156 122.323 73.5156 115.4 73.5162C115.4 79.4422 118.173 82.8672 123.664 82.8672C128.175 82.8672 130.84 79.388 131.003 77.2672C132.597 77.2667 134.192 77.2667 135.788 77.2672ZM130.717 69.7104C130.445 65.3068 128.597 61.2292 122.78 61.2292C118.376 61.2292 114.896 65.3068 114.896 69.7104C120.17 69.7099 125.444 69.7099 130.717 69.7104ZM162.609 86.1834C161.015 86.1834 159.42 86.1834 157.825 86.1834C157.825 80.3479 157.825 74.5126 157.825 68.6776C157.825 63.7298 156.412 61.2292 151.736 61.2292C149.017 61.2292 144.233 62.9683 144.233 70.6891C144.233 75.8531 144.233 81.0183 144.233 86.1834C142.639 86.1834 141.044 86.1834 139.448 86.1834C139.448 76.7052 139.448 67.2271 139.448 57.7495C140.952 57.7495 142.457 57.7495 143.961 57.7495C143.961 59.0907 143.961 60.4312 143.961 61.7724C143.997 61.7724 144.033 61.7724 144.069 61.7724C145.103 60.2506 147.767 56.9334 152.66 56.9334C157.064 56.9334 162.609 58.7282 162.609 66.8287C162.609 73.2803 162.609 79.7312 162.609 86.1834Z" fill="#D5D4D5"/>
<path fill-rule="evenodd" clip-rule="evenodd" d="M55.6703 87.2453C43.5194 87.2453 37.5443 79.8443 35.2146 72.1115C37.8448 84.6631 52.0588 96.95 96.9052 102.431C139.275 107.609 166.885 94.6271 176.2 88.586C176.2 88.586 182.493 85.8167 178.717 90.0959C178.717 90.0959 152.033 114.766 99.6746 115.017C47.314 115.269 5.77868 88.838 6.03025 62.1536C5.77868 35.4707 47.314 9.03867 99.6746 9.29067C152.033 9.54267 178.717 34.212 178.717 34.212C182.493 38.492 176.2 35.7227 176.2 35.7227C166.885 29.6813 139.393 17.7813 96.9052 21.8773C55.1178 25.9053 41.4776 40.1027 36.9464 49.668C35.2027 53.3493 34.4146 56.8213 34.2172 60.3172C35.3459 51.1907 41.0194 40.428 55.6703 40.428C72.2662 40.428 77.3448 54.2387 77.3448 63.8369C77.3448 73.4355 72.2662 87.2453 55.6703 87.2453ZM224.377 78.0183C231.747 78.0177 239.116 78.0177 246.485 78.0183C246.485 80.7011 246.485 83.3844 246.485 86.0688C236.02 86.0683 225.553 86.0683 215.088 86.0688C215.088 71.2469 215.088 56.4267 215.088 41.6053C218.184 41.6053 221.281 41.6053 224.377 41.6053C224.377 53.7427 224.377 65.8797 224.377 78.0183ZM190.267 62.1027C196.459 62.1027 202.652 62.1027 208.844 62.1027C208.844 70.0912 208.844 78.0797 208.844 86.0688C206.78 86.0683 204.716 86.0683 202.652 86.0688C202.341 84.2104 202.032 82.3527 201.723 80.4948C199.369 83.2197 195.963 87.2453 187.851 87.2453C177.137 87.2453 167.415 79.5661 167.415 63.9604C167.415 51.8227 174.165 40.3667 189.151 40.428C202.775 40.428 208.163 49.284 208.659 55.4147C205.563 55.4147 202.465 55.4147 199.369 55.4147C199.369 53.6813 196.211 48.108 189.647 48.108C183.02 48.108 176.891 52.6907 176.891 64.0844C176.891 76.2224 183.516 79.3807 189.833 79.3807C191.876 79.3807 198.688 78.5755 200.608 69.5959C197.16 69.5953 193.713 69.5953 190.267 69.5959C190.267 67.0979 190.267 64.6 190.267 62.1027ZM55.6703 45.7547C46.0094 45.7547 40.1886 53.372 40.1886 63.8369C40.1886 74.3027 46.0094 81.9193 55.6703 81.9193C65.3307 81.9193 71.1522 74.3027 71.1522 63.8369C71.1522 53.372 65.3307 45.7547 55.6703 45.7547ZM80.6771 57.6349C82.1818 57.6349 83.686 57.6349 85.1902 57.6349C85.1907 58.9755 85.1907 60.3161 85.1902 61.6573C85.2266 61.6568 85.2626 61.6568 85.2984 61.6573C86.4402 60.0271 88.6146 56.8187 93.7798 56.8187C101.336 56.8187 106.723 63.224 106.723 71.2167C106.723 78.012 102.805 86.8844 93.1276 86.8844C89.3219 86.8844 86.8203 85.0901 85.5703 83.0781C85.5344 83.0776 85.4979 83.0776 85.4615 83.0781C85.462 87.826 85.462 92.5745 85.4615 97.3224C83.8672 97.3219 82.2724 97.3219 80.6771 97.3224C80.6776 84.0932 80.6776 70.8631 80.6771 57.6349ZM92.7667 82.7521C97.9864 82.7521 101.524 78.2297 101.524 71.9776C101.524 68.3349 100.052 61.114 92.6579 61.114C85.7536 61.114 84.9922 68.562 84.9922 73.1833C84.9922 80.7407 89.7224 82.7521 92.7667 82.7521ZM135.675 77.1521C135.512 78.5115 134.207 82.5349 130.619 84.9265C129.314 85.7964 127.466 86.8844 122.899 86.8844C114.907 86.8844 110.177 80.8495 110.177 72.6401C110.177 63.8323 114.418 56.8187 123.823 56.8187C132.032 56.8187 136.056 63.3432 136.056 73.4011C129.133 73.4005 122.211 73.4005 115.288 73.4011C115.288 79.3265 118.06 82.7521 123.552 82.7521C128.064 82.7521 130.728 79.2724 130.891 77.1521C132.485 77.1521 134.081 77.1521 135.675 77.1521ZM130.605 69.5953C130.333 65.1916 128.485 61.114 122.668 61.114C118.264 61.114 114.784 65.1916 114.784 69.5953C120.058 69.5948 125.332 69.5948 130.605 69.5953ZM162.497 86.0688C160.903 86.0683 159.308 86.0683 157.713 86.0688C157.713 80.2328 157.713 74.3973 157.713 68.562C157.713 63.6145 156.299 61.114 151.624 61.114C148.905 61.114 144.121 62.8536 144.121 70.5735C144.121 75.7385 144.121 80.9036 144.121 86.0688C142.527 86.0683 140.931 86.0683 139.337 86.0688C139.337 76.5901 139.337 67.112 139.337 57.6349C140.841 57.6349 142.345 57.6349 143.849 57.6349C143.849 58.9755 143.849 60.3161 143.849 61.6573C143.885 61.6568 143.921 61.6568 143.957 61.6573C144.991 60.136 147.655 56.8187 152.548 56.8187C156.952 56.8187 162.497 58.6136 162.497 66.7136C162.497 73.1651 162.497 79.6167 162.497 86.0688Z" fill="#CFCECE"/>
<path fill-rule="evenodd" clip-rule="evenodd" d="M55.5584 87.1297C43.4073 87.1297 37.4317 79.7287 35.1021 71.9964C37.7333 84.5479 51.9473 96.8344 96.7932 102.316C139.163 107.494 166.773 94.512 176.088 88.4703C176.088 88.4703 182.381 85.7016 178.605 89.9812C178.605 89.9812 151.923 114.651 99.562 114.902C47.2021 115.154 5.66614 88.7224 5.9177 62.0385C5.66614 35.356 47.2021 8.92401 99.562 9.17468C151.923 9.42668 178.605 34.0973 178.605 34.0973C182.381 38.376 176.088 35.6067 176.088 35.6067C166.773 29.5653 139.281 17.6667 96.7932 21.7613C55.0063 25.7893 41.3656 39.988 36.8344 49.5533C35.0907 53.2347 34.3027 56.7053 34.1052 60.2021C35.2344 51.076 40.9068 40.3133 55.5584 40.3133C72.1547 40.3133 77.2328 54.124 77.2328 63.7219C77.2328 73.3208 72.1547 87.1297 55.5584 87.1297ZM224.265 77.9031C231.635 77.9027 239.004 77.9027 246.373 77.9031C246.373 80.5864 246.373 83.2693 246.373 85.9531C235.907 85.9531 225.441 85.9531 214.976 85.9531C214.976 71.1317 214.976 56.312 214.976 41.4907C218.072 41.4907 221.169 41.4907 224.265 41.4907C224.265 53.628 224.265 65.7651 224.265 77.9031ZM190.155 61.9875C196.347 61.9875 202.54 61.9875 208.732 61.9875C208.732 69.9755 208.732 77.9645 208.732 85.9531C206.668 85.9531 204.604 85.9531 202.54 85.9531C202.231 84.0953 201.92 82.2375 201.611 80.3803C199.257 83.1047 195.851 87.1297 187.739 87.1297C177.025 87.1297 167.303 79.4511 167.303 63.8453C167.303 51.708 174.053 40.252 189.04 40.3133C202.663 40.3133 208.051 49.1693 208.547 55.3C205.451 55.3 202.353 55.3 199.257 55.3C199.257 53.5653 196.099 47.9933 189.535 47.9933C182.909 47.9933 176.777 52.576 176.777 63.9693C176.777 76.1073 183.404 79.2656 189.72 79.2656C191.764 79.2656 198.576 78.4604 200.495 69.4812C197.048 69.4807 193.601 69.4807 190.155 69.4812C190.155 66.9828 190.155 64.4849 190.155 61.9875ZM55.5584 45.64C45.8979 45.64 40.0765 53.2573 40.0765 63.7219C40.0765 74.1875 45.8979 81.8041 55.5584 81.8041C65.2193 81.8041 71.0401 74.1875 71.0401 63.7219C71.0401 53.2573 65.2193 45.64 55.5584 45.64ZM80.5656 57.5197C82.0703 57.5197 83.574 57.5197 85.0776 57.5197C85.0781 58.8604 85.0781 60.2016 85.0776 61.5427C85.1145 61.5427 85.1505 61.5427 85.1864 61.5427C86.3287 59.9115 88.5027 56.704 93.6677 56.704C101.225 56.704 106.611 63.1088 106.611 71.1011C106.611 77.8973 102.693 86.7688 93.0151 86.7688C89.2093 86.7688 86.7088 84.9749 85.4584 82.9636C85.4224 82.9631 85.3864 82.9631 85.3495 82.9636C85.35 87.7109 85.35 92.4588 85.3495 97.2073C83.7552 97.2073 82.1604 97.2073 80.5656 97.2073C80.5656 83.9776 80.5656 70.7484 80.5656 57.5197ZM92.6552 82.6369C97.874 82.6369 101.412 78.1145 101.412 71.8625C101.412 68.2197 99.9407 60.9989 92.5464 60.9989C85.6417 60.9989 84.8803 68.4473 84.8803 73.0688C84.8803 80.6255 89.6104 82.6369 92.6552 82.6369ZM135.563 77.0369C135.4 78.3964 134.095 82.4197 130.507 84.812C129.202 85.6817 127.354 86.7688 122.787 86.7688C114.795 86.7688 110.066 80.7344 110.066 72.5245C110.066 63.7172 114.306 56.704 123.711 56.704C131.92 56.704 135.944 63.2276 135.944 73.286C129.021 73.2855 122.099 73.2855 115.176 73.286C115.176 79.212 117.949 82.6369 123.44 82.6369C127.952 82.6369 130.616 79.1579 130.779 77.0369C132.373 77.0364 133.968 77.0364 135.563 77.0369ZM130.493 69.4803C130.221 65.0765 128.373 60.9989 122.556 60.9989C118.152 60.9989 114.672 65.0765 114.672 69.4803C119.946 69.4797 125.22 69.4797 130.493 69.4803ZM162.385 85.9531C160.791 85.9531 159.195 85.9531 157.601 85.9531C157.601 80.1177 157.601 74.2823 157.601 68.4473C157.601 63.4995 156.188 60.9989 151.512 60.9989C148.793 60.9989 144.009 62.7385 144.009 70.4588C144.009 75.6229 144.009 80.788 144.009 85.9531C142.415 85.9531 140.819 85.9531 139.225 85.9531C139.225 76.4749 139.225 66.9969 139.225 57.5197C140.729 57.5197 142.233 57.5197 143.737 57.5197C143.737 58.8604 143.737 60.2016 143.737 61.5427C143.773 61.5427 143.809 61.5427 143.845 61.5427C144.879 60.0203 147.543 56.704 152.436 56.704C156.84 56.704 162.385 58.4979 162.385 66.5989C162.385 73.05 162.385 79.5011 162.385 85.9531Z" fill="#C8C7C7"/>
<path fill-rule="evenodd" clip-rule="evenodd" d="M55.4464 87.0151C43.2953 87.0151 37.3203 79.614 34.9907 71.8812C37.6213 84.4333 51.8355 96.7203 96.6812 102.201C139.051 107.38 166.661 94.3973 175.976 88.3557C175.976 88.3557 182.269 85.5869 178.493 89.8661C178.493 89.8661 151.809 114.536 99.45 114.787C47.0901 115.04 5.55418 88.6079 5.80626 61.924C5.55418 35.24 47.0901 8.80932 99.45 9.06132C151.809 9.31199 178.493 33.9827 178.493 33.9827C182.269 38.2613 175.976 35.4933 175.976 35.4933C166.661 29.4507 139.169 17.552 96.6812 21.648C54.8937 25.6747 41.2536 39.872 36.7224 49.4387C34.9787 53.12 34.1907 56.5907 33.9932 60.0875C35.1224 50.9613 40.7948 40.1987 55.4464 40.1987C72.0427 40.1987 77.1208 54.0093 77.1208 63.6073C77.1208 73.2057 72.0427 87.0151 55.4464 87.0151ZM224.153 77.7885C231.523 77.788 238.892 77.788 246.261 77.7885C246.261 80.4713 246.261 83.1547 246.261 85.8391C235.795 85.8385 225.329 85.8385 214.864 85.8391C214.864 71.0172 214.864 56.1973 214.864 41.376C217.96 41.376 221.057 41.376 224.153 41.376C224.153 53.5133 224.153 65.65 224.153 77.7885ZM190.043 61.8729C196.235 61.8724 202.428 61.8724 208.62 61.8729C208.62 69.8615 208.62 77.85 208.62 85.8391C206.556 85.8385 204.492 85.8385 202.428 85.8391C202.117 83.9803 201.808 82.1229 201.499 80.2651C199.145 82.9901 195.74 87.0151 187.627 87.0151C176.913 87.0151 167.192 79.3364 167.192 63.7307C167.192 51.5933 173.941 40.1373 188.927 40.1987C202.551 40.1987 207.939 49.0547 208.435 55.1853C205.339 55.1853 202.241 55.1853 199.145 55.1853C199.145 53.4507 195.987 47.8787 189.423 47.8787C182.797 47.8787 176.667 52.46 176.667 63.8547C176.667 75.9921 183.292 79.1511 189.608 79.1511C191.652 79.1511 198.464 78.3453 200.384 69.3661C196.936 69.3656 193.489 69.3656 190.043 69.3661C190.043 66.8683 190.043 64.3703 190.043 61.8729ZM55.4464 45.5253C45.786 45.5253 39.9645 53.1413 39.9645 63.6073C39.9645 74.0729 45.786 81.6896 55.4464 81.6896C65.1068 81.6896 70.9281 74.0729 70.9281 63.6073C70.9281 53.1413 65.1068 45.5253 55.4464 45.5253ZM80.4531 57.4047C81.9579 57.4047 83.462 57.4047 84.9661 57.4047C84.9661 58.7459 84.9661 60.0864 84.9661 61.4276C85.0027 61.4271 85.0385 61.4271 85.0745 61.4276C86.2167 59.7969 88.3907 56.5893 93.5557 56.5893C101.113 56.5893 106.498 62.9943 106.498 70.9864C106.498 77.7823 102.581 86.6541 92.9031 86.6541C89.0979 86.6541 86.5969 84.8604 85.3464 82.8484C85.3104 82.8479 85.2745 82.8479 85.2375 82.8484C85.2375 87.5964 85.2375 92.3443 85.2375 97.0927C83.6432 97.0921 82.0484 97.0921 80.4531 97.0927C80.4536 83.8631 80.4536 70.6333 80.4531 57.4047ZM92.5432 82.5224C97.7625 82.5224 101.3 78 101.3 71.7473C101.3 68.1047 99.8281 60.8839 92.4344 60.8839C85.5297 60.8839 84.7683 68.3323 84.7683 72.9536C84.7683 80.5109 89.4984 82.5224 92.5432 82.5224ZM135.452 76.9224C135.288 78.2812 133.983 82.3052 130.395 84.6969C129.09 85.5667 127.242 86.6541 122.675 86.6541C114.684 86.6541 109.954 80.6193 109.954 72.4099C109.954 63.6021 114.194 56.5893 123.599 56.5893C131.809 56.5893 135.832 63.1131 135.832 73.1708C128.909 73.1708 121.987 73.1708 115.064 73.1708C115.064 79.0969 117.837 82.5224 123.328 82.5224C127.84 82.5224 130.504 79.0427 130.667 76.9224C132.261 76.9224 133.856 76.9224 135.452 76.9224ZM130.381 69.3651C130.109 64.962 128.261 60.8839 122.444 60.8839C118.04 60.8839 114.56 64.962 114.56 69.3651C119.834 69.3651 125.108 69.3651 130.381 69.3651ZM162.273 85.8391C160.679 85.8385 159.084 85.8385 157.489 85.8391C157.489 80.0027 157.489 74.1677 157.489 68.3323C157.489 63.3844 156.076 60.8839 151.4 60.8839C148.681 60.8839 143.897 62.624 143.897 70.3437C143.897 75.5083 143.897 80.6735 143.897 85.8391C142.303 85.8385 140.707 85.8385 139.112 85.8391C139.112 76.3599 139.112 66.8823 139.112 57.4047C140.617 57.4047 142.121 57.4047 143.625 57.4047C143.625 58.7459 143.625 60.0864 143.625 61.4276C143.661 61.4271 143.697 61.4271 143.733 61.4276C144.767 59.9057 147.431 56.5893 152.324 56.5893C156.728 56.5893 162.273 58.3833 162.273 66.4839C162.273 72.9349 162.273 79.3869 162.273 85.8391Z" fill="#C4C3C3"/>
<path fill-rule="evenodd" clip-rule="evenodd" d="M55.3344 86.9C43.1833 86.9 37.2084 79.4989 34.8787 71.7667C37.5088 84.3183 51.7229 96.6047 96.5693 102.086C138.939 107.264 166.551 94.2823 175.864 88.2407C175.864 88.2407 182.157 85.4719 178.381 89.7516C178.381 89.7516 151.697 114.421 99.3385 114.672C46.9781 114.924 5.44218 88.4927 5.69426 61.8088C5.44218 35.1253 46.9781 8.69332 99.3385 8.94532C151.697 9.19732 178.381 33.8667 178.381 33.8667C182.157 38.1467 175.864 35.3773 175.864 35.3773C166.551 29.336 139.057 17.4373 96.5693 21.532C54.7817 25.56 41.1417 39.7573 36.6104 49.324C34.8667 53.0053 34.0787 56.476 33.8812 59.9729C35.0099 50.8453 40.6828 40.084 55.3344 40.084C71.9303 40.084 77.0084 53.8933 77.0084 63.4921C77.0084 73.0907 71.9303 86.9 55.3344 86.9ZM224.041 77.6729C231.411 77.6729 238.78 77.6729 246.149 77.6729C246.149 80.3563 246.149 83.0396 246.149 85.7235C235.684 85.7229 225.217 85.7229 214.752 85.7235C214.752 70.9021 214.752 56.0813 214.752 41.26C217.848 41.26 220.945 41.26 224.041 41.26C224.041 53.3973 224.041 65.5355 224.041 77.6729ZM189.931 61.7579C196.123 61.7573 202.316 61.7573 208.508 61.7579C208.508 69.7459 208.508 77.7349 208.508 85.7235C206.444 85.7229 204.38 85.7229 202.316 85.7235C202.005 83.8656 201.696 82.0073 201.387 80.15C199.033 82.8749 195.627 86.9 187.515 86.9C176.801 86.9 167.079 79.2213 167.079 63.6156C167.079 51.4787 173.829 40.0213 188.815 40.084C202.439 40.084 207.827 48.9387 208.323 55.0707C205.227 55.0707 202.129 55.0707 199.033 55.0707C199.033 53.336 195.875 47.7627 189.311 47.7627C182.684 47.7627 176.555 52.3453 176.555 63.7396C176.555 75.8776 183.18 79.0355 189.497 79.0355C191.54 79.0355 198.352 78.2303 200.272 69.2511C196.824 69.2511 193.377 69.2511 189.931 69.2511C189.931 66.7531 189.931 64.2552 189.931 61.7579ZM55.3344 45.4093C45.6735 45.4093 39.8527 53.0267 39.8527 63.4921C39.8527 73.9573 45.6735 81.5745 55.3344 81.5745C64.9948 81.5745 70.8161 73.9573 70.8161 63.4921C70.8161 53.0267 64.9948 45.4093 55.3344 45.4093ZM80.3412 57.2893C81.8459 57.2893 83.35 57.2893 84.8541 57.2893C84.8547 58.6307 84.8547 59.9719 84.8541 61.3125C84.8907 61.3125 84.9265 61.3125 84.9625 61.3125C86.1041 59.6817 88.2787 56.4733 93.4437 56.4733C101.001 56.4733 106.387 62.8792 106.387 70.8713C106.387 77.6677 102.469 86.5391 92.7917 86.5391C88.986 86.5391 86.4844 84.7448 85.2344 82.7333C85.1984 82.7333 85.162 82.7333 85.1255 82.7333C85.126 87.4812 85.126 92.2292 85.1255 96.9776C83.5312 96.9771 81.9364 96.9771 80.3412 96.9776C80.3417 83.7479 80.3417 70.5183 80.3412 57.2893ZM92.4307 82.4068C97.6505 82.4068 101.187 77.8849 101.187 71.6328C101.187 67.9901 99.7161 60.7693 92.3219 60.7693C85.4177 60.7693 84.6563 68.2177 84.6563 72.8385C84.6563 80.3959 89.3864 82.4068 92.4307 82.4068ZM135.339 76.8073C135.176 78.1661 133.872 82.1901 130.283 84.5823C128.978 85.4516 127.13 86.5391 122.564 86.5391C114.571 86.5391 109.841 80.5041 109.841 72.2948C109.841 63.4869 114.082 56.4733 123.487 56.4733C131.696 56.4733 135.72 62.9979 135.72 73.0563C128.798 73.0557 121.875 73.0557 114.952 73.0563C114.952 78.9817 117.725 82.4068 123.216 82.4068C127.728 82.4068 130.392 78.9281 130.555 76.8073C132.149 76.8068 133.744 76.8068 135.339 76.8073ZM130.269 69.2505C129.997 64.8464 128.149 60.7693 122.332 60.7693C117.928 60.7693 114.448 64.8464 114.448 69.2505C119.722 69.25 124.996 69.25 130.269 69.2505ZM162.161 85.7235C160.567 85.7229 158.972 85.7229 157.376 85.7235C157.376 79.888 157.376 74.0521 157.376 68.2177C157.376 63.2697 155.963 60.7693 151.288 60.7693C148.569 60.7693 143.785 62.5083 143.785 70.2292C143.785 75.3932 143.785 80.5583 143.785 85.7235C142.191 85.7229 140.595 85.7229 139 85.7235C139 76.2453 139 66.7672 139 57.2893C140.505 57.2893 142.009 57.2893 143.513 57.2893C143.513 58.6307 143.513 59.9719 143.513 61.3125C143.551 61.3125 143.585 61.3125 143.621 61.3125C144.655 59.7907 147.319 56.4733 152.212 56.4733C156.616 56.4733 162.161 58.2683 162.161 66.3688C162.161 72.8203 162.161 79.2713 162.161 85.7235Z" fill="#BDBCBC"/>
<path fill-rule="evenodd" clip-rule="evenodd" d="M55.2224 86.7855C43.0713 86.7855 37.0959 79.3844 34.7661 71.6511C37.3973 84.2031 51.6115 96.4902 96.4573 101.971C138.827 107.149 166.439 94.1672 175.752 88.126C175.752 88.126 182.045 85.3568 178.269 89.636C178.269 89.636 151.585 114.306 99.226 114.557C46.8661 114.809 5.3302 88.3782 5.58176 61.6938C5.3302 35.0107 46.8661 8.57869 99.226 8.83069C151.585 9.08269 178.269 33.752 178.269 33.752C182.045 38.032 175.752 35.2627 175.752 35.2627C166.439 29.2214 138.945 17.3214 96.4573 21.4174C54.6697 25.4454 41.0297 39.6427 36.4984 49.208C34.7547 52.8894 33.9667 56.3614 33.7693 59.8574C34.8979 50.7307 40.5708 39.9694 55.2224 39.9694C71.8183 39.9694 76.8969 53.7787 76.8969 63.3771C76.8969 72.9755 71.8183 86.7855 55.2224 86.7855ZM223.929 77.5583C231.299 77.5579 238.668 77.5579 246.037 77.5583C246.037 80.2412 246.037 82.9246 246.037 85.6088C235.572 85.6083 225.105 85.6083 214.64 85.6088C214.64 70.787 214.64 55.9667 214.64 41.1454C217.736 41.1454 220.833 41.1454 223.929 41.1454C223.929 53.2827 223.929 65.4198 223.929 77.5583ZM189.819 61.6427C196.011 61.6427 202.204 61.6427 208.396 61.6427C208.396 69.6312 208.396 77.6198 208.396 85.6088C206.332 85.6083 204.268 85.6083 202.204 85.6088C201.893 83.75 201.584 81.8927 201.275 80.035C198.921 82.7599 195.515 86.7855 187.403 86.7855C176.689 86.7855 166.967 79.1063 166.967 63.5006C166.967 51.3627 173.717 39.9067 188.704 39.9694C202.327 39.9694 207.715 48.824 208.211 54.9547C205.115 54.9547 202.017 54.9547 198.921 54.9547C198.921 53.2214 195.763 47.648 189.199 47.648C182.572 47.648 176.441 52.2307 176.441 63.6246C176.441 75.762 183.068 78.9208 189.384 78.9208C191.428 78.9208 198.24 78.1151 200.16 69.136C196.712 69.1355 193.265 69.1355 189.819 69.136C189.819 66.638 189.819 64.1402 189.819 61.6427ZM55.2224 45.2947C45.562 45.2947 39.7407 52.912 39.7407 63.3771C39.7407 73.8427 45.562 81.4594 55.2224 81.4594C64.8828 81.4594 70.7036 73.8427 70.7036 63.3771C70.7036 52.912 64.8828 45.2947 55.2224 45.2947ZM80.2297 57.1747C81.7339 57.1747 83.238 57.1747 84.7417 57.1747C84.7421 58.5156 84.7421 59.8568 84.7417 61.1974C84.7786 61.1974 84.8145 61.1974 84.8505 61.1974C85.9927 59.5667 88.1666 56.36 93.3317 56.36C100.889 56.36 106.275 62.764 106.275 70.7563C106.275 77.5522 102.357 86.424 92.6792 86.424C88.8734 86.424 86.3729 84.6303 85.1224 82.6183C85.0864 82.6178 85.05 82.6178 85.0136 82.6183C85.014 87.3662 85.014 92.114 85.0136 96.8626C83.4188 96.862 81.8245 96.862 80.2297 96.8626C80.2297 83.6334 80.2297 70.4031 80.2297 57.1747ZM92.3188 82.2922C97.538 82.2922 101.076 77.7698 101.076 71.5172C101.076 67.8746 99.6046 60.6536 92.2104 60.6536C85.3057 60.6536 84.5442 68.1022 84.5442 72.7235C84.5442 80.2807 89.2745 82.2922 92.3188 82.2922ZM135.227 76.6922C135.064 78.0511 133.76 82.075 130.171 84.4667C128.866 85.3364 127.018 86.424 122.452 86.424C114.459 86.424 109.729 80.3891 109.729 72.1798C109.729 63.3724 113.97 56.36 123.375 56.36C131.584 56.36 135.608 62.8828 135.608 72.9407C128.686 72.9407 121.763 72.9407 114.84 72.9407C114.84 78.8667 117.613 82.2922 123.104 82.2922C127.616 82.2922 130.28 78.8126 130.443 76.6922C132.037 76.6922 133.632 76.6922 135.227 76.6922ZM130.157 69.1355C129.885 64.7318 128.036 60.6536 122.22 60.6536C117.816 60.6536 114.336 64.7318 114.336 69.1355C119.61 69.135 124.884 69.135 130.157 69.1355ZM162.049 85.6088C160.455 85.6083 158.86 85.6083 157.265 85.6088C157.265 79.7724 157.265 73.9375 157.265 68.1022C157.265 63.1547 155.852 60.6536 151.176 60.6536C148.457 60.6536 143.673 62.3938 143.673 70.1136C143.673 75.2787 143.673 80.4438 143.673 85.6088C142.079 85.6083 140.484 85.6083 138.889 85.6088C138.889 76.1298 138.889 66.6522 138.889 57.1747C140.393 57.1747 141.897 57.1747 143.401 57.1747C143.401 58.5156 143.401 59.8568 143.401 61.1974C143.437 61.1974 143.473 61.1974 143.509 61.1974C144.543 59.6755 147.207 56.36 152.1 56.36C156.503 56.36 162.049 58.1531 162.049 66.2536C162.049 72.7047 162.049 79.1568 162.049 85.6088Z" fill="#B6B5B5"/>
<path fill-rule="evenodd" clip-rule="evenodd" d="M55.1104 86.6703C42.9594 86.6703 36.9839 79.2693 34.6542 71.5364C37.2855 84.0885 51.4995 96.3749 96.3454 101.856C138.715 107.034 166.327 94.0526 175.64 88.0109C175.64 88.0109 181.933 85.2421 178.157 89.5213C178.157 89.5213 151.473 114.191 99.114 114.442C46.7542 114.694 5.21827 88.2631 5.46983 61.5792C5.21827 34.896 46.7542 8.46398 99.114 8.71598C151.473 8.96665 178.157 33.6373 178.157 33.6373C181.933 37.916 175.64 35.148 175.64 35.148C166.327 29.1053 138.833 17.2067 96.3454 21.3027C54.5579 25.3307 40.9172 39.528 36.3864 49.0933C34.6427 52.7746 33.8547 56.2467 33.6574 59.7427C34.7864 50.616 40.4588 39.8547 55.1104 39.8547C71.7068 39.8547 76.785 53.664 76.785 63.262C76.785 72.8604 71.7068 86.6703 55.1104 86.6703ZM223.817 77.4432C231.187 77.4432 238.556 77.4432 245.925 77.4432C245.925 80.1265 245.925 82.8099 245.925 85.4937C235.46 85.4932 224.993 85.4932 214.528 85.4937C214.528 70.6724 214.528 55.852 214.528 41.0306C217.624 41.0306 220.721 41.0306 223.817 41.0306C223.817 53.168 223.817 65.3052 223.817 77.4432ZM189.707 61.5281C195.899 61.5276 202.092 61.5276 208.284 61.5281C208.284 69.5161 208.284 77.5047 208.284 85.4937C206.22 85.4932 204.156 85.4932 202.092 85.4937C201.781 83.636 201.472 81.7776 201.163 79.9202C198.809 82.6453 195.403 86.6703 187.291 86.6703C176.577 86.6703 166.855 78.9916 166.855 63.386C166.855 51.248 173.605 39.792 188.591 39.8547C202.215 39.8547 207.603 48.7093 208.099 54.84C205.003 54.84 201.905 54.84 198.809 54.84C198.809 53.1066 195.651 47.5333 189.087 47.5333C182.461 47.5333 176.331 52.116 176.331 63.5098C176.331 75.6478 182.956 78.8057 189.272 78.8057C191.316 78.8057 198.128 78.0005 200.048 69.0208C196.6 69.0208 193.153 69.0208 189.707 69.0208C189.707 66.5229 189.707 64.0249 189.707 61.5281ZM55.1104 45.18C45.45 45.18 39.6287 52.7973 39.6287 63.262C39.6287 73.7276 45.45 81.3448 55.1104 81.3448C64.7708 81.3448 70.5922 73.7276 70.5922 63.262C70.5922 52.7973 64.7708 45.18 55.1104 45.18ZM80.1172 57.06C81.6219 57.06 83.126 57.06 84.6298 57.06C84.6303 58.4011 84.6303 59.7416 84.6298 61.0828C84.6667 61.0822 84.7027 61.0822 84.7386 61.0828C85.8807 59.4521 88.0547 56.244 93.2198 56.244C100.777 56.244 106.163 62.6495 106.163 70.6416C106.163 77.4375 102.245 86.3093 92.5672 86.3093C88.762 86.3093 86.261 84.515 85.0104 82.5036C84.9746 82.503 84.9386 82.503 84.9016 82.5036C84.9016 87.251 84.9016 91.9995 84.9016 96.7479C83.3074 96.7473 81.7126 96.7473 80.1172 96.7479C80.1178 83.5183 80.1178 70.2885 80.1172 57.06ZM92.2074 82.1771C97.426 82.1771 100.964 77.6552 100.964 71.4031C100.964 67.7604 99.4922 60.5391 92.0979 60.5391C85.1938 60.5391 84.4323 67.9875 84.4323 72.6083C84.4323 80.1661 89.1626 82.1771 92.2074 82.1771ZM135.115 76.5776C134.952 77.9364 133.647 81.9599 130.059 84.3521C128.754 85.2219 126.906 86.3093 122.34 86.3093C114.347 86.3093 109.618 80.2745 109.618 72.065C109.618 63.2573 113.858 56.244 123.264 56.244C131.472 56.244 135.496 62.7683 135.496 72.826C128.574 72.826 121.651 72.826 114.728 72.826C114.728 78.7521 117.501 82.1771 122.992 82.1771C127.504 82.1771 130.168 78.6978 130.33 76.5776C131.925 76.577 133.52 76.577 135.115 76.5776ZM130.045 69.0208C129.773 64.6167 127.925 60.5391 122.108 60.5391C117.704 60.5391 114.225 64.6167 114.225 69.0208C119.498 69.0203 124.772 69.0203 130.045 69.0208ZM161.937 85.4937C160.343 85.4932 158.748 85.4932 157.153 85.4937C157.153 79.6583 157.153 73.8224 157.153 67.9875C157.153 63.0401 155.74 60.5391 151.064 60.5391C148.345 60.5391 143.561 62.2787 143.561 69.9989C143.561 75.1636 143.561 80.3287 143.561 85.4937C141.967 85.4932 140.372 85.4932 138.776 85.4937C138.776 76.0156 138.776 66.5369 138.776 57.06C140.281 57.06 141.785 57.06 143.289 57.06C143.289 58.4011 143.289 59.7416 143.289 61.0828C143.325 61.0822 143.361 61.0822 143.397 61.0828C144.431 59.5609 147.095 56.244 151.988 56.244C156.392 56.244 161.937 58.0385 161.937 66.1391C161.937 72.5901 161.937 79.0416 161.937 85.4937Z" fill="#B0AEAF"/>
<path fill-rule="evenodd" clip-rule="evenodd" d="M54.9984 86.5552C42.8474 86.5552 36.8724 79.1542 34.5422 71.4214C37.173 83.9735 51.387 96.2599 96.2334 101.741C138.603 106.919 166.215 93.9375 175.528 87.8959C175.528 87.8959 181.821 85.1271 178.045 89.4063C178.045 89.4063 151.361 114.076 99.0022 114.328C46.6418 114.58 5.1063 88.1479 5.35838 61.464C5.1063 34.7814 46.6418 8.34936 99.0022 8.60003C151.361 8.85203 178.045 33.5214 178.045 33.5214C181.821 37.8014 175.528 35.032 175.528 35.032C166.215 28.9907 138.721 17.092 96.2334 21.188C54.4459 25.2147 40.8058 39.412 36.2746 48.9787C34.5307 52.66 33.7422 56.1307 33.5454 59.6276C34.674 50.5014 40.347 39.7387 54.9984 39.7387C71.5943 39.7387 76.6724 53.5494 76.6724 63.1474C76.6724 72.7459 71.5943 86.5552 54.9984 86.5552ZM223.705 77.3282C231.075 77.3282 238.444 77.3282 245.813 77.3282C245.813 80.0115 245.813 82.6948 245.813 85.3787C235.348 85.3787 224.881 85.3787 214.416 85.3787C214.416 70.5568 214.416 55.7374 214.416 40.9147C217.512 40.9147 220.609 40.9147 223.705 40.9147C223.705 53.0534 223.705 65.1902 223.705 77.3282ZM189.595 61.4131C195.787 61.4126 201.979 61.4126 208.172 61.4131C208.172 69.4011 208.172 77.3902 208.172 85.3787C206.108 85.3787 204.044 85.3787 201.979 85.3787C201.669 83.5203 201.36 81.6631 201.051 79.8052C198.697 82.5298 195.291 86.5552 187.179 86.5552C176.465 86.5552 166.743 78.8766 166.743 63.2708C166.743 51.1334 173.493 39.6774 188.479 39.7387C202.103 39.7387 207.491 48.5947 207.987 54.7254C204.891 54.7254 201.793 54.7254 198.697 54.7254C198.697 52.9907 195.539 47.4174 188.975 47.4174C182.348 47.4174 176.219 52 176.219 63.3948C176.219 75.5323 182.844 78.6907 189.16 78.6907C191.204 78.6907 198.016 77.8855 199.936 68.9063C196.488 68.9058 193.041 68.9058 189.595 68.9063C189.595 66.4083 189.595 63.9104 189.595 61.4131ZM54.9984 45.0654C45.3375 45.0654 39.5167 52.6814 39.5167 63.1474C39.5167 73.6131 45.3375 81.2292 54.9984 81.2292C64.6588 81.2292 70.4798 73.6131 70.4798 63.1474C70.4798 52.6814 64.6588 45.0654 54.9984 45.0654ZM80.0052 56.9454C81.5099 56.9454 83.014 56.9454 84.5183 56.9454C84.5183 58.2855 84.5183 59.6266 84.5183 60.9678C84.5547 60.9672 84.5907 60.9672 84.6266 60.9678C85.7683 59.337 87.9427 56.1294 93.1079 56.1294C100.665 56.1294 106.051 62.5344 106.051 70.5266C106.051 77.3224 102.132 86.1943 92.4552 86.1943C88.65 86.1943 86.1484 84.4 84.8984 82.3886C84.8626 82.388 84.826 82.388 84.7896 82.3886C84.7896 87.1364 84.7896 91.8844 84.7896 96.6328C83.1954 96.6323 81.6006 96.6323 80.0052 96.6328C80.0058 83.4031 80.0058 70.1735 80.0052 56.9454ZM92.0948 82.0626C97.3146 82.0626 100.852 77.5396 100.852 71.2875C100.852 67.6448 99.3803 60.424 91.986 60.424C85.0818 60.424 84.3203 67.8724 84.3203 72.4938C84.3203 80.0511 89.0506 82.0626 92.0948 82.0626ZM135.003 76.462C134.84 77.8214 133.535 81.8448 129.947 84.237C128.642 85.1068 126.794 86.1943 122.228 86.1943C114.236 86.1943 109.505 80.1594 109.505 71.95C109.505 63.1422 113.746 56.1294 123.152 56.1294C131.36 56.1294 135.384 62.6531 135.384 72.711C128.462 72.7104 121.539 72.7104 114.616 72.711C114.616 78.637 117.389 82.0626 122.88 82.0626C127.392 82.0626 130.056 78.5828 130.219 76.462C131.813 76.462 133.408 76.462 135.003 76.462ZM129.932 68.9052C129.661 64.5022 127.813 60.424 121.996 60.424C117.592 60.424 114.113 64.5022 114.113 68.9052C119.386 68.9052 124.66 68.9052 129.932 68.9052ZM161.825 85.3787C160.231 85.3787 158.636 85.3787 157.04 85.3787C157.04 79.5427 157.04 73.7079 157.04 67.8724C157.04 62.9246 155.627 60.424 150.952 60.424C148.233 60.424 143.449 62.164 143.449 69.8839C143.449 75.0484 143.449 80.2136 143.449 85.3787C141.855 85.3787 140.26 85.3787 138.664 85.3787C138.664 75.9 138.664 66.4224 138.664 56.9454C140.169 56.9454 141.673 56.9454 143.177 56.9454C143.177 58.2855 143.177 59.6266 143.177 60.9678C143.213 60.9672 143.249 60.9672 143.285 60.9678C144.319 59.4459 146.984 56.1294 151.876 56.1294C156.28 56.1294 161.825 57.9235 161.825 66.024C161.825 72.475 161.825 78.9266 161.825 85.3787Z" fill="#A9A8A8"/>
<path fill-rule="evenodd" clip-rule="evenodd" d="M54.8864 86.4402C42.736 86.4402 36.7604 79.0391 34.4307 71.3068C37.0615 83.8583 51.2755 96.1448 96.1213 101.626C138.491 106.804 166.103 93.8224 175.417 87.7807C175.417 87.7807 181.709 85.012 177.933 89.2912C177.933 89.2912 151.251 113.961 98.8907 114.212C46.5303 114.464 4.9948 88.0328 5.24638 61.349C4.9948 34.6654 46.5303 8.23335 98.8907 8.48535C151.251 8.73735 177.933 33.4067 177.933 33.4067C181.709 37.6867 175.417 34.9174 175.417 34.9174C166.103 28.876 138.609 16.9774 96.1213 21.072C54.3339 25.1 40.6937 39.2974 36.1631 48.864C34.4188 52.5454 33.6307 56.016 33.4333 59.5126C34.5625 50.3854 40.2355 39.624 54.8864 39.624C71.4828 39.624 76.5609 53.4334 76.5609 63.0317C76.5609 72.6303 71.4828 86.4402 54.8864 86.4402ZM223.593 77.2131C230.963 77.2131 238.332 77.2131 245.701 77.2131C245.701 79.8964 245.701 82.5797 245.701 85.2636C235.236 85.2631 224.769 85.2631 214.304 85.2636C214.304 70.4421 214.304 55.6213 214.304 40.8C217.401 40.8 220.497 40.8 223.593 40.8C223.593 52.9387 223.593 65.075 223.593 77.2131ZM189.483 61.2979C195.675 61.2979 201.868 61.2979 208.06 61.2979C208.06 69.286 208.06 77.2749 208.06 85.2636C205.996 85.2631 203.932 85.2631 201.868 85.2636C201.559 83.4057 201.248 81.5474 200.939 79.6902C198.585 82.4151 195.18 86.4402 187.067 86.4402C176.353 86.4402 166.632 78.7615 166.632 63.1558C166.632 51.0187 173.381 39.5614 188.368 39.624C201.992 39.624 207.379 48.4787 207.875 54.6107C204.779 54.6107 201.681 54.6107 198.585 54.6107C198.585 52.876 195.427 47.3027 188.863 47.3027C182.237 47.3027 176.107 51.8854 176.107 63.2798C176.107 75.4178 182.732 78.5755 189.049 78.5755C191.093 78.5755 197.905 77.7703 199.824 68.7907C196.377 68.7907 192.929 68.7907 189.483 68.7907C189.483 66.2932 189.483 63.7954 189.483 61.2979ZM54.8864 44.9493C45.226 44.9493 39.4047 52.5667 39.4047 63.0317C39.4047 73.4973 45.226 81.1146 54.8864 81.1146C64.5473 81.1146 70.3683 73.4973 70.3683 63.0317C70.3683 52.5667 64.5473 44.9493 54.8864 44.9493ZM79.8932 56.8293C81.3984 56.8293 82.9021 56.8293 84.4063 56.8293C84.4068 58.1708 84.4068 59.512 84.4063 60.8527C84.4427 60.8527 84.4787 60.8527 84.5145 60.8527C85.6568 59.2219 87.8312 56.0147 92.9964 56.0147C100.553 56.0147 105.939 62.4194 105.939 70.4115C105.939 77.2074 102.021 86.0792 92.3437 86.0792C88.538 86.0792 86.0369 84.285 84.7869 82.2735C84.7511 82.273 84.7145 82.273 84.6781 82.2735C84.6781 87.0208 84.6781 91.7693 84.6781 96.5177C83.0833 96.5172 81.4885 96.5172 79.8932 96.5177C79.8937 83.288 79.8937 70.0583 79.8932 56.8293ZM91.9833 81.9469C97.2027 81.9469 100.74 77.425 100.74 71.173C100.74 67.5303 99.2688 60.3088 91.8745 60.3088C84.9703 60.3088 84.2084 67.7574 84.2084 72.3782C84.2084 79.936 88.9385 81.9469 91.9833 81.9469ZM134.892 76.3473C134.728 77.7063 133.424 81.7297 129.835 84.1219C128.531 84.9916 126.682 86.0792 122.116 86.0792C114.124 86.0792 109.394 80.0443 109.394 71.835C109.394 63.0271 113.634 56.0147 123.04 56.0147C131.249 56.0147 135.272 62.538 135.272 72.5959C128.35 72.5959 121.428 72.5959 114.505 72.5959C114.505 78.5219 117.277 81.9469 122.768 81.9469C127.28 81.9469 129.944 78.4677 130.107 76.3473C131.702 76.3469 133.297 76.3469 134.892 76.3473ZM129.821 68.7907C129.549 64.3864 127.701 60.3088 121.884 60.3088C117.48 60.3088 114.001 64.3864 114.001 68.7907C119.275 68.7902 124.548 68.7902 129.821 68.7907ZM161.713 85.2636C160.119 85.2631 158.524 85.2631 156.929 85.2636C156.929 79.4281 156.929 73.5922 156.929 67.7574C156.929 62.8099 155.516 60.3088 150.84 60.3088C148.121 60.3088 143.337 62.0484 143.337 69.7688C143.337 74.9334 143.337 80.0984 143.337 85.2636C141.743 85.2631 140.148 85.2631 138.552 85.2636C138.552 75.7855 138.552 66.3068 138.552 56.8293C140.057 56.8293 141.561 56.8293 143.065 56.8293C143.065 58.1708 143.065 59.512 143.065 60.8527C143.103 60.8527 143.139 60.8527 143.173 60.8527C144.207 59.3307 146.872 56.0147 151.764 56.0147C156.168 56.0147 161.713 57.8083 161.713 65.9088C161.713 72.3599 161.713 78.8115 161.713 85.2636Z" fill="#A3A1A1"/>
<path fill-rule="evenodd" clip-rule="evenodd" d="M54.7745 86.3249C42.6235 86.3249 36.6484 78.924 34.3188 71.1912C36.9495 83.7432 51.1636 96.0297 96.0099 101.511C138.379 106.689 165.991 93.7073 175.305 87.6656C175.305 87.6656 181.597 84.8969 177.821 89.176C177.821 89.176 151.139 113.846 98.7787 114.097C46.4183 114.349 4.88282 87.9177 5.13438 61.2339C4.88282 34.5507 46.4183 8.11868 98.7787 8.37068C151.139 8.62268 177.821 33.292 177.821 33.292C181.597 37.572 175.305 34.8027 175.305 34.8027C165.991 28.7613 138.497 16.8613 96.0099 20.9573C54.2219 24.9853 40.5817 39.1827 36.0511 48.748C34.3073 52.4293 33.5188 55.9 33.3219 59.3973C34.4505 50.2707 40.1235 39.5093 54.7745 39.5093C71.3708 39.5093 76.4489 53.3187 76.4489 62.9172C76.4489 72.5156 71.3708 86.3249 54.7745 86.3249ZM223.481 77.0979C230.851 77.0979 238.22 77.0979 245.589 77.0979C245.589 79.7812 245.589 82.4645 245.589 85.1484C235.124 85.1484 224.657 85.1484 214.193 85.1484C214.193 70.3271 214.193 55.5067 214.193 40.6853C217.288 40.6853 220.385 40.6853 223.481 40.6853C223.481 52.8227 223.481 64.9599 223.481 77.0979ZM189.371 61.1828C195.563 61.1828 201.756 61.1828 207.948 61.1828C207.948 69.1708 207.948 77.1599 207.948 85.1484C205.884 85.1484 203.82 85.1484 201.756 85.1484C201.445 83.2901 201.136 81.4328 200.827 79.5749C198.473 82.2995 195.067 86.3249 186.955 86.3249C176.241 86.3249 166.519 78.6464 166.519 63.0407C166.519 50.9027 173.269 39.4467 188.256 39.5093C201.88 39.5093 207.267 48.364 207.763 54.4947C204.667 54.4947 201.569 54.4947 198.473 54.4947C198.473 52.7613 195.315 47.188 188.752 47.188C182.125 47.188 175.995 51.7707 175.995 63.1645C175.995 75.3021 182.621 78.4604 188.937 78.4604C190.981 78.4604 197.792 77.6552 199.712 68.676C196.265 68.6755 192.817 68.6755 189.371 68.676C189.371 66.1781 189.371 63.6803 189.371 61.1828ZM54.7745 44.8347C45.114 44.8347 39.2932 52.452 39.2932 62.9172C39.2932 73.3828 45.114 80.9989 54.7745 80.9989C64.4355 80.9989 70.2563 73.3828 70.2563 62.9172C70.2563 52.452 64.4355 44.8347 54.7745 44.8347ZM79.7817 56.7147C81.286 56.7147 82.7907 56.7147 84.2943 56.7147C84.2948 58.0552 84.2948 59.3969 84.2943 60.7375C84.3312 60.7375 84.3667 60.7375 84.4027 60.7375C85.5448 59.1068 87.7188 55.9 92.8839 55.9C100.441 55.9 105.827 62.3041 105.827 70.2964C105.827 77.0921 101.909 85.964 92.2317 85.964C88.426 85.964 85.9251 84.1697 84.6751 82.1583C84.6385 82.1579 84.6027 82.1579 84.5656 82.1583C84.5661 86.9063 84.5661 91.6541 84.5656 96.4027C82.9713 96.4021 81.3765 96.4021 79.7817 96.4027C79.7817 83.1729 79.7817 69.9432 79.7817 56.7147ZM91.8713 81.8323C97.0907 81.8323 100.628 77.3093 100.628 71.0573C100.628 67.4145 99.1568 60.1943 91.7625 60.1943C84.8579 60.1943 84.0969 67.6421 84.0969 72.2636C84.0969 79.8208 88.8265 81.8323 91.8713 81.8323ZM134.779 76.2317C134.616 77.5912 133.311 81.6145 129.723 84.0068C128.419 84.8765 126.571 85.964 122.004 85.964C114.012 85.964 109.282 79.9292 109.282 71.7197C109.282 62.912 113.522 55.9 122.928 55.9C131.137 55.9 135.16 62.4229 135.16 72.4807C128.238 72.4803 121.315 72.4803 114.392 72.4807C114.392 78.4068 117.165 81.8323 122.656 81.8323C127.168 81.8323 129.832 78.3527 129.995 76.2317C131.59 76.2317 133.185 76.2317 134.779 76.2317ZM129.709 68.6749C129.437 64.2719 127.589 60.1943 121.772 60.1943C117.369 60.1943 113.889 64.2719 113.889 68.6749C119.163 68.6749 124.436 68.6749 129.709 68.6749ZM161.601 85.1484C160.007 85.1484 158.412 85.1484 156.817 85.1484C156.817 79.3125 156.817 73.4776 156.817 67.6421C156.817 62.6943 155.404 60.1943 150.728 60.1943C148.009 60.1943 143.225 61.9339 143.225 69.6536C143.225 74.8183 143.225 79.9833 143.225 85.1484C141.631 85.1484 140.036 85.1484 138.441 85.1484C138.441 75.6697 138.441 66.1921 138.441 56.7147C139.945 56.7147 141.449 56.7147 142.953 56.7147C142.953 58.0552 142.953 59.3969 142.953 60.7375C142.991 60.7375 143.027 60.7375 143.061 60.7375C144.095 59.2156 146.76 55.9 151.652 55.9C156.056 55.9 161.601 57.6932 161.601 65.7937C161.601 72.2448 161.601 78.6969 161.601 85.1484Z" fill="#9C9A9B"/>
<path fill-rule="evenodd" clip-rule="evenodd" d="M54.6631 86.2104C42.5115 86.2104 36.5364 78.8093 34.2068 71.0765C36.8375 83.6287 51.0516 95.9151 95.8974 101.396C138.268 106.575 165.879 93.5927 175.192 87.5511C175.192 87.5511 181.485 84.7823 177.709 89.0615C177.709 89.0615 151.027 113.731 98.6662 113.982C46.3063 114.234 4.77088 87.8031 5.02244 61.1194C4.77088 34.436 46.3063 8.00402 98.6662 8.25602C151.027 8.50669 177.709 33.1773 177.709 33.1773C181.485 37.4573 175.192 34.688 175.192 34.688C165.879 28.6454 138.385 16.748 95.8974 20.8427C54.1104 24.8707 40.4698 39.068 35.9386 48.6333C34.1954 52.3147 33.4068 55.7867 33.2094 59.2828C34.3386 50.156 40.011 39.3947 54.6631 39.3947C71.2588 39.3947 76.337 53.204 76.337 62.8021C76.337 72.4005 71.2588 86.2104 54.6631 86.2104ZM223.369 76.9833C230.739 76.9828 238.108 76.9828 245.477 76.9833C245.477 79.6667 245.477 82.35 245.477 85.0339C235.012 85.0334 224.547 85.0334 214.081 85.0339C214.081 70.212 214.081 55.392 214.081 40.5707C217.176 40.5707 220.273 40.5707 223.369 40.5707C223.369 52.708 223.369 64.8453 223.369 76.9833ZM189.259 61.0683C195.451 61.0678 201.644 61.0678 207.836 61.0683C207.836 69.0563 207.836 77.0448 207.836 85.0339C205.772 85.0334 203.708 85.0334 201.644 85.0339C201.335 83.1755 201.024 81.3177 200.715 79.4604C198.361 82.1849 194.956 86.2104 186.843 86.2104C176.131 86.2104 166.408 78.5312 166.408 62.926C166.408 50.788 173.157 39.332 188.144 39.3947C201.767 39.3947 207.155 48.2493 207.651 54.38C204.555 54.38 201.457 54.38 198.361 54.38C198.361 52.6467 195.203 47.0734 188.639 47.0734C182.013 47.0734 175.883 51.656 175.883 63.05C175.883 75.1875 182.508 78.3459 188.824 78.3459C190.869 78.3459 197.681 77.5407 199.6 68.5609C196.152 68.5609 192.705 68.5609 189.259 68.5609C189.259 66.0631 189.259 63.5651 189.259 61.0683ZM54.6631 44.72C45.0022 44.72 39.1812 52.3373 39.1812 62.8021C39.1812 73.2677 45.0022 80.8844 54.6631 80.8844C64.3235 80.8844 70.1443 73.2677 70.1443 62.8021C70.1443 52.3373 64.3235 44.72 54.6631 44.72ZM79.6698 56.6C81.1746 56.6 82.6782 56.6 84.1823 56.6C84.1823 57.9412 84.1823 59.2817 84.1823 60.6229C84.2188 60.6224 84.2552 60.6224 84.2912 60.6229C85.4328 58.9921 87.6074 55.784 92.7724 55.784C100.329 55.784 105.715 62.1896 105.715 70.1817C105.715 76.9771 101.797 85.8495 92.1198 85.8495C88.314 85.8495 85.8131 84.0552 84.5626 82.0437C84.5266 82.0432 84.4907 82.0432 84.4536 82.0437C84.4542 86.7912 84.4542 91.5396 84.4536 96.2875C82.8594 96.2875 81.2646 96.2875 79.6698 96.2875C79.6703 83.0583 79.6703 69.8281 79.6698 56.6ZM91.7594 81.7172C96.9787 81.7172 100.516 77.1948 100.516 70.9427C100.516 67.3 99.0448 60.0798 91.6506 60.0798C84.7459 60.0798 83.985 67.5276 83.985 72.1484C83.985 79.7063 88.7151 81.7172 91.7594 81.7172ZM134.668 76.1177C134.504 77.4765 133.199 81.5 129.611 83.8921C128.307 84.7615 126.458 85.8495 121.892 85.8495C113.9 85.8495 109.17 79.8145 109.17 71.6052C109.17 62.7973 113.41 55.784 122.816 55.784C131.025 55.784 135.048 62.3083 135.048 72.3661C128.126 72.3661 121.203 72.3661 114.28 72.3661C114.28 78.2921 117.053 81.7172 122.544 81.7172C127.056 81.7172 129.72 78.238 129.883 76.1177C131.478 76.1172 133.073 76.1172 134.668 76.1177ZM129.597 68.5604C129.325 64.1568 127.477 60.0798 121.66 60.0798C117.256 60.0798 113.777 64.1568 113.777 68.5604C119.051 68.5604 124.325 68.5604 129.597 68.5604ZM161.489 85.0339C159.895 85.0334 158.3 85.0334 156.705 85.0339C156.705 79.1984 156.705 73.3625 156.705 67.5276C156.705 62.5803 155.292 60.0798 150.616 60.0798C147.897 60.0798 143.113 61.8188 143.113 69.5391C143.113 74.7036 143.113 79.8688 143.113 85.0339C141.519 85.0334 139.924 85.0334 138.329 85.0339C138.329 75.5552 138.329 66.0771 138.329 56.6C139.833 56.6 141.337 56.6 142.841 56.6C142.841 57.9412 142.841 59.2817 142.841 60.6229C142.877 60.6224 142.915 60.6224 142.951 60.6229C143.984 59.1011 146.648 55.784 151.54 55.784C155.944 55.784 161.489 57.5787 161.489 65.6787C161.489 72.1303 161.489 78.5818 161.489 85.0339Z" fill="#989696"/>
<path fill-rule="evenodd" clip-rule="evenodd" d="M54.5506 86.0954C42.4 86.0954 36.4246 78.6943 34.0948 70.9615C36.7255 83.5131 50.9396 95.8 95.7855 101.281C138.155 106.459 165.767 93.4776 175.08 87.4355C175.08 87.4355 181.373 84.6667 177.597 88.9464C177.597 88.9464 150.915 113.616 98.5547 113.867C46.1943 114.119 4.65836 87.688 4.91044 61.0036C4.65836 34.3214 46.1943 7.88937 98.5547 8.14004C150.915 8.39337 177.597 33.0614 177.597 33.0614C181.373 37.3414 175.08 34.572 175.08 34.572C165.767 28.5307 138.273 16.632 95.7855 20.7267C53.9979 24.7547 40.3579 38.952 35.8266 48.5187C34.0828 52.2 33.2948 55.6707 33.0974 59.1678C34.2266 50.0414 39.8995 39.2787 54.5506 39.2787C71.147 39.2787 76.2251 53.088 76.2251 62.687C76.2251 72.286 71.147 86.0954 54.5506 86.0954ZM223.257 76.8683C230.627 76.8678 237.996 76.8678 245.365 76.8683C245.365 79.5516 245.365 82.235 245.365 84.9188C234.9 84.9183 224.433 84.9183 213.968 84.9188C213.968 70.097 213.968 55.276 213.968 40.4547C217.065 40.4547 220.161 40.4547 223.257 40.4547C223.257 52.5934 223.257 64.7303 223.257 76.8683ZM189.147 60.9531C195.339 60.9531 201.532 60.9531 207.724 60.9531C207.724 68.9407 207.724 76.9298 207.724 84.9188C205.66 84.9183 203.596 84.9183 201.532 84.9188C201.223 83.0604 200.912 81.2027 200.603 79.3454C198.249 82.0698 194.844 86.0954 186.731 86.0954C176.017 86.0954 166.296 78.4167 166.296 62.811C166.296 50.6734 173.045 39.216 188.032 39.2787C201.655 39.2787 207.043 48.1347 207.539 54.2654C204.443 54.2654 201.345 54.2654 198.249 54.2654C198.249 52.5307 195.091 46.9574 188.527 46.9574C181.901 46.9574 175.771 51.54 175.771 62.935C175.771 75.0724 182.396 78.2307 188.713 78.2307C190.757 78.2307 197.569 77.4255 199.488 68.4464C196.041 68.4459 192.593 68.4459 189.147 68.4464C189.147 65.9484 189.147 63.4506 189.147 60.9531ZM54.5506 44.6054C44.8902 44.6054 39.0688 52.2214 39.0688 62.687C39.0688 73.1527 44.8902 80.7694 54.5506 80.7694C64.2115 80.7694 70.0323 73.1527 70.0323 62.687C70.0323 52.2214 64.2115 44.6054 54.5506 44.6054ZM79.5574 56.4854C81.0626 56.4854 82.5662 56.4854 84.0703 56.4854C84.0708 57.8255 84.0708 59.1672 84.0703 60.5079C84.1068 60.5079 84.1427 60.5079 84.1787 60.5079C85.3208 58.8766 87.4954 55.6694 92.6604 55.6694C100.217 55.6694 105.603 62.0746 105.603 70.0667C105.603 76.8626 101.685 85.7339 92.0079 85.7339C88.2022 85.7339 85.7011 83.9402 84.4511 81.9287C84.4151 81.9282 84.3787 81.9282 84.3422 81.9287C84.3422 86.676 84.3422 91.4246 84.3422 96.173C82.7474 96.1724 81.1527 96.1724 79.5574 96.173C79.5579 82.9427 79.5579 69.7136 79.5574 56.4854ZM91.6474 81.6022C96.8667 81.6022 100.404 77.0798 100.404 70.8276C100.404 67.185 98.9328 59.9646 91.5386 59.9646C84.6339 59.9646 83.8724 67.4126 83.8724 72.0339C83.8724 79.5907 88.6027 81.6022 91.6474 81.6022ZM134.556 76.0022C134.392 77.3615 133.088 81.385 129.5 83.7771C128.195 84.647 126.346 85.7339 121.78 85.7339C113.788 85.7339 109.058 79.6995 109.058 71.4902C109.058 62.6823 113.298 55.6694 122.704 55.6694C130.913 55.6694 134.936 62.1932 134.936 72.2511C128.014 72.2506 121.092 72.2506 114.168 72.2511C114.168 78.1771 116.941 81.6022 122.432 81.6022C126.944 81.6022 129.608 78.123 129.771 76.0022C131.366 76.0022 132.96 76.0022 134.556 76.0022ZM129.485 68.4454C129.213 64.0416 127.365 59.9646 121.548 59.9646C117.144 59.9646 113.665 64.0416 113.665 68.4454C118.939 68.4448 124.212 68.4448 129.485 68.4454ZM161.377 84.9188C159.783 84.9183 158.188 84.9183 156.593 84.9188C156.593 79.0828 156.593 73.2479 156.593 67.4126C156.593 62.4646 155.18 59.9646 150.504 59.9646C147.785 59.9646 143.001 61.7036 143.001 69.424C143.001 74.588 143.001 79.7536 143.001 84.9188C141.407 84.9183 139.812 84.9183 138.217 84.9188C138.217 75.4402 138.217 65.9626 138.217 56.4854C139.721 56.4854 141.225 56.4854 142.729 56.4854C142.729 57.8255 142.729 59.1672 142.729 60.5079C142.767 60.5079 142.801 60.5079 142.839 60.5079C143.872 58.986 146.536 55.6694 151.428 55.6694C155.832 55.6694 161.377 57.4631 161.377 65.564C161.377 72.0151 161.377 78.4667 161.377 84.9188Z" fill="#918F90"/>
<path fill-rule="evenodd" clip-rule="evenodd" d="M54.4385 85.9803C42.2875 85.9803 36.3125 78.5792 33.9828 70.8464C36.6136 83.3984 50.8276 95.6849 95.674 101.166C138.043 106.344 165.655 93.3625 174.969 87.3208C174.969 87.3208 181.261 84.5521 177.485 88.8312C177.485 88.8312 150.803 113.501 98.4427 113.752C46.0823 114.004 4.54688 87.5729 4.79844 60.8891C4.54688 34.2053 46.0823 7.77332 98.4427 8.02532C150.803 8.27732 177.485 32.9467 177.485 32.9467C181.261 37.2267 174.969 34.4573 174.969 34.4573C165.655 28.416 138.161 16.5173 95.674 20.612C53.886 24.64 40.2459 38.8373 35.7151 48.404C33.9708 52.084 33.1828 55.556 32.986 59.0527C34.1145 49.9267 39.7875 39.164 54.4385 39.164C71.0349 39.164 76.1131 52.9733 76.1131 62.5719C76.1131 72.1703 71.0349 85.9803 54.4385 85.9803ZM223.145 76.7531C230.515 76.7527 237.884 76.7527 245.253 76.7531C245.253 79.4364 245.253 82.1197 245.253 84.8036C234.788 84.8031 224.321 84.8031 213.857 84.8036C213.857 69.9817 213.857 55.1613 213.857 40.34C216.952 40.34 220.049 40.34 223.145 40.34C223.145 52.4787 223.145 64.6151 223.145 76.7531ZM189.035 60.838C195.227 60.838 201.42 60.838 207.612 60.838C207.612 68.826 207.612 76.8145 207.612 84.8036C205.548 84.8031 203.484 84.8031 201.42 84.8036C201.109 82.9459 200.8 81.0875 200.491 79.2303C198.137 81.9552 194.731 85.9803 186.619 85.9803C175.905 85.9803 166.184 78.3011 166.184 62.6959C166.184 50.5587 172.933 39.1027 187.919 39.164C201.544 39.164 206.931 48.0187 207.427 54.1493C204.331 54.1493 201.233 54.1493 198.137 54.1493C198.137 52.416 194.979 46.8427 188.416 46.8427C181.788 46.8427 175.659 51.4253 175.659 62.8197C175.659 74.9573 182.284 78.1156 188.601 78.1156C190.645 78.1156 197.456 77.3104 199.376 68.3307C195.929 68.3307 192.481 68.3307 189.035 68.3307C189.035 65.8328 189.035 63.3349 189.035 60.838ZM54.4385 44.4893C44.7776 44.4893 38.9568 52.1067 38.9568 62.5719C38.9568 73.0375 44.7776 80.6547 54.4385 80.6547C64.0989 80.6547 69.9203 73.0375 69.9203 62.5719C69.9203 52.1067 64.0989 44.4893 54.4385 44.4893ZM79.4459 56.3693C80.95 56.3693 82.4547 56.3693 83.9584 56.3693C83.9588 57.7109 83.9588 59.0521 83.9584 60.3927C83.9948 60.3927 84.0307 60.3927 84.0667 60.3927C85.2088 58.762 87.3828 55.5547 92.5479 55.5547C100.105 55.5547 105.491 61.9593 105.491 69.9516C105.491 76.7473 101.573 85.6193 91.8959 85.6193C88.0901 85.6193 85.5891 83.8249 84.3391 81.8136C84.3027 81.8131 84.2661 81.8131 84.2297 81.8136C84.2303 86.5609 84.2303 91.3093 84.2297 96.0573C82.6355 96.0573 81.0407 96.0573 79.4459 96.0573C79.4459 82.8281 79.4459 69.5979 79.4459 56.3693ZM91.5355 81.4869C96.7547 81.4869 100.292 76.9651 100.292 70.7125C100.292 67.0697 98.8203 59.8495 91.426 59.8495C84.5219 59.8495 83.7604 67.2973 83.7604 71.9183C83.7604 79.476 88.4907 81.4869 91.5355 81.4869ZM134.443 75.8875C134.28 77.2464 132.975 81.2697 129.387 83.662C128.083 84.5312 126.234 85.6193 121.668 85.6193C113.676 85.6193 108.945 79.5844 108.945 71.3749C108.945 62.5672 113.186 55.5547 122.592 55.5547C130.801 55.5547 134.824 62.0781 134.824 72.136C127.902 72.136 120.979 72.136 114.056 72.136C114.056 78.062 116.829 81.4869 122.32 81.4869C126.832 81.4869 129.496 78.0079 129.659 75.8875C131.254 75.8869 132.849 75.8869 134.443 75.8875ZM129.373 68.3307C129.102 63.9265 127.253 59.8495 121.436 59.8495C117.033 59.8495 113.553 63.9265 113.553 68.3307C118.827 68.3303 124.101 68.3303 129.373 68.3307ZM161.265 84.8036C159.671 84.8031 158.076 84.8031 156.481 84.8036C156.481 78.9683 156.481 73.1323 156.481 67.2973C156.481 62.35 155.068 59.8495 150.392 59.8495C147.673 59.8495 142.889 61.5885 142.889 69.3088C142.889 74.4735 142.889 79.6385 142.889 84.8036C141.295 84.8031 139.7 84.8031 138.105 84.8036C138.105 75.3255 138.105 65.8469 138.105 56.3693C139.609 56.3693 141.113 56.3693 142.617 56.3693C142.617 57.7109 142.617 59.0521 142.617 60.3927C142.655 60.3927 142.691 60.3927 142.727 60.3927C143.76 58.8708 146.424 55.5547 151.316 55.5547C155.72 55.5547 161.265 57.3484 161.265 65.4484C161.265 71.9 161.265 78.3516 161.265 84.8036Z" fill="#8B8889"/>
<path fill-rule="evenodd" clip-rule="evenodd" d="M54.3266 85.8651C42.1755 85.8651 36.2006 78.464 33.8703 70.7318C36.5016 83.2834 50.7156 95.5703 95.5615 101.052C137.931 106.23 165.543 93.2474 174.856 87.2058C174.856 87.2058 181.149 84.437 177.373 88.7167C177.373 88.7167 150.691 113.386 98.3303 113.637C45.9703 113.89 4.43494 87.4579 4.6865 60.774C4.43494 34.0907 45.9703 7.65869 98.3303 7.91069C150.691 8.16269 177.373 32.832 177.373 32.832C181.149 37.112 174.856 34.3427 174.856 34.3427C165.543 28.3014 138.049 16.4027 95.5615 20.4974C53.7746 24.5254 40.1339 38.7227 35.6027 48.2894C33.8594 51.9694 33.0708 55.4414 32.8735 58.938C34.0027 49.812 39.6751 39.0494 54.3266 39.0494C70.923 39.0494 76.0011 52.8587 76.0011 62.4574C76.0011 72.0563 70.923 85.8651 54.3266 85.8651ZM223.033 76.6386C230.403 76.638 237.772 76.638 245.141 76.6386C245.141 79.3219 245.141 82.0047 245.141 84.6886C234.676 84.6886 224.211 84.6886 213.745 84.6886C213.745 69.8672 213.745 55.0467 213.745 40.2254C216.84 40.2254 219.937 40.2254 223.033 40.2254C223.033 52.364 223.033 64.5006 223.033 76.6386ZM188.923 60.723C195.115 60.723 201.308 60.723 207.5 60.723C207.5 68.711 207.5 76.7 207.5 84.6886C205.436 84.6886 203.372 84.6886 201.308 84.6886C200.999 82.8307 200.688 80.973 200.379 79.1156C198.025 81.8402 194.619 85.8651 186.507 85.8651C175.795 85.8651 166.072 78.1864 166.072 62.5812C166.072 50.444 172.821 38.9867 187.808 39.0494C201.431 39.0494 206.819 47.904 207.315 54.036C204.219 54.036 201.121 54.036 198.025 54.036C198.025 52.3014 194.867 46.728 188.303 46.728C181.677 46.728 175.545 51.3107 175.545 62.7052C175.545 74.8427 182.172 78.0011 188.488 78.0011C190.533 78.0011 197.345 77.1959 199.264 68.2162C195.817 68.2162 192.369 68.2162 188.923 68.2162C188.923 65.7183 188.923 63.2203 188.923 60.723ZM54.3266 44.3747C44.6662 44.3747 38.8454 51.992 38.8454 62.4574C38.8454 72.9224 44.6662 80.5396 54.3266 80.5396C63.9875 80.5396 69.8084 72.9224 69.8084 62.4574C69.8084 51.992 63.9875 44.3747 54.3266 44.3747ZM79.3339 56.2547C80.8386 56.2547 82.3422 56.2547 83.8459 56.2547C83.8464 57.5959 83.8464 58.937 83.8459 60.2776C83.8828 60.2776 83.9188 60.2776 83.9547 60.2776C85.097 58.647 87.2708 55.44 92.436 55.44C99.9932 55.44 105.379 61.8443 105.379 69.8364C105.379 76.6328 101.461 85.5042 91.7839 85.5042C87.9776 85.5042 85.4771 83.7104 84.2266 81.699C84.1907 81.6984 84.1547 81.6984 84.1178 81.699C84.1183 86.4464 84.1183 91.1943 84.1178 95.9432C82.5235 95.9427 80.9287 95.9427 79.3339 95.9432C79.3339 82.7131 79.3339 69.4839 79.3339 56.2547ZM91.4235 81.3724C96.6422 81.3724 100.18 76.85 100.18 70.5979C100.18 66.9552 98.7088 59.735 91.3146 59.735C84.4099 59.735 83.649 67.1828 83.649 71.8036C83.649 79.361 88.3787 81.3724 91.4235 81.3724ZM134.331 75.7724C134.168 77.1318 132.864 81.1552 129.275 83.5474C127.97 84.4172 126.122 85.5042 121.556 85.5042C113.564 85.5042 108.834 79.4698 108.834 71.2604C108.834 62.4527 113.075 55.44 122.48 55.44C130.689 55.44 134.712 61.9636 134.712 72.0214C127.79 72.0208 120.867 72.0208 113.944 72.0214C113.944 77.9474 116.717 81.3724 122.208 81.3724C126.72 81.3724 129.384 77.8932 129.547 75.7724C131.142 75.7719 132.737 75.7719 134.331 75.7724ZM129.261 68.2156C128.989 63.812 127.141 59.735 121.325 59.735C116.92 59.735 113.441 63.812 113.441 68.2156C118.715 68.2151 123.989 68.2151 129.261 68.2156ZM161.153 84.6886C159.559 84.6886 157.964 84.6886 156.369 84.6886C156.369 78.8531 156.369 73.0178 156.369 67.1828C156.369 62.235 154.956 59.735 150.28 59.735C147.561 59.735 142.777 61.474 142.777 69.1943C142.777 74.3583 142.777 79.5235 142.777 84.6886C141.183 84.6886 139.588 84.6886 137.993 84.6886C137.993 75.2104 137.993 65.7323 137.993 56.2547C139.497 56.2547 141.001 56.2547 142.505 56.2547C142.505 57.5959 142.505 58.937 142.505 60.2776C142.541 60.2776 142.579 60.2776 142.615 60.2776C143.648 58.7563 146.312 55.44 151.204 55.44C155.608 55.44 161.153 57.2334 161.153 65.3339C161.153 71.7855 161.153 78.237 161.153 84.6886Z" fill="#848182"/>
<path fill-rule="evenodd" clip-rule="evenodd" d="M54.2146 85.7506C42.0636 85.7506 36.0886 78.3495 33.7588 70.6167C36.3896 83.1688 50.6036 95.4552 95.4495 100.936C137.819 106.115 165.431 93.1323 174.744 87.0912C174.744 87.0912 181.037 84.3219 177.261 88.6011C177.261 88.6011 150.579 113.271 98.2183 113.522C45.8584 113.775 4.32243 87.3432 4.57451 60.6594C4.32243 33.976 45.8584 7.54404 98.2183 7.79604C150.579 8.04804 177.261 32.7174 177.261 32.7174C181.037 36.9974 174.744 34.228 174.744 34.228C165.431 28.1854 137.937 16.2867 95.4495 20.3827C53.662 24.4094 40.0219 38.6067 35.4907 48.1734C33.747 51.8547 32.9588 55.3267 32.7615 58.823C33.8907 49.696 39.5631 38.9334 54.2146 38.9334C70.811 38.9334 75.8891 52.744 75.8891 62.3422C75.8891 71.9407 70.811 85.7506 54.2146 85.7506ZM222.921 76.5235C230.291 76.523 237.66 76.523 245.029 76.5235C245.029 79.2063 245.029 81.8902 245.029 84.574C234.564 84.5735 224.097 84.5735 213.632 84.574C213.632 69.7522 213.632 54.932 213.632 40.1107C216.729 40.1107 219.825 40.1107 222.921 40.1107C222.921 52.248 222.921 64.3855 222.921 76.5235ZM188.811 60.6083C195.003 60.6083 201.196 60.6083 207.388 60.6083C207.388 68.5964 207.388 76.585 207.388 84.574C205.324 84.5735 203.26 84.5735 201.196 84.574C200.887 82.7156 200.576 80.8579 200.267 79.0006C197.913 81.725 194.508 85.7506 186.395 85.7506C175.681 85.7506 165.96 78.0714 165.96 62.4656C165.96 50.328 172.709 38.872 187.696 38.9334C201.319 38.9334 206.707 47.7894 207.203 53.92C204.107 53.92 201.009 53.92 197.913 53.92C197.913 52.1867 194.755 46.6134 188.191 46.6134C181.565 46.6134 175.435 51.196 175.435 62.5896C175.435 74.7271 182.06 77.886 188.377 77.886C190.421 77.886 197.233 77.0807 199.152 68.1011C195.705 68.1006 192.257 68.1006 188.811 68.1011C188.811 65.6031 188.811 63.1052 188.811 60.6083ZM54.2146 44.26C44.5542 44.26 38.7328 51.8774 38.7328 62.3422C38.7328 72.8079 44.5542 80.4246 54.2146 80.4246C63.8755 80.4246 69.6964 72.8079 69.6964 62.3422C69.6964 51.8774 63.8755 44.26 54.2146 44.26ZM79.2214 56.14C80.7266 56.14 82.2303 56.14 83.7344 56.14C83.7344 57.4812 83.7344 58.8219 83.7344 60.1631C83.7708 60.1631 83.8068 60.1631 83.8427 60.1631C84.985 58.5323 87.1594 55.324 92.3246 55.324C99.8812 55.324 105.267 61.7298 105.267 69.7219C105.267 76.5172 101.349 85.3896 91.6714 85.3896C87.8662 85.3896 85.3651 83.5954 84.1146 81.5839C84.0787 81.5834 84.0427 81.5834 84.0058 81.5839C84.0063 86.3312 84.0063 91.0798 84.0058 95.8276C82.4115 95.8271 80.8167 95.8271 79.2214 95.8276C79.2219 82.5984 79.2219 69.3683 79.2214 56.14ZM91.3115 81.2574C96.5307 81.2574 100.068 76.735 100.068 70.4823C100.068 66.8402 98.597 59.6194 91.2027 59.6194C84.2979 59.6194 83.5364 67.0672 83.5364 71.6886C83.5364 79.2459 88.2667 81.2574 91.3115 81.2574ZM134.22 75.6574C134.056 77.0167 132.752 81.0402 129.164 83.4318C127.859 84.3016 126.01 85.3896 121.444 85.3896C113.452 85.3896 108.722 79.3547 108.722 71.1454C108.722 62.3375 112.963 55.324 122.368 55.324C130.577 55.324 134.6 61.8484 134.6 71.9063C127.678 71.9058 120.755 71.9058 113.832 71.9063C113.832 77.8323 116.605 81.2574 122.096 81.2574C126.608 81.2574 129.272 77.7776 129.435 75.6574C131.03 75.6574 132.625 75.6574 134.22 75.6574ZM129.149 68.1006C128.877 63.697 127.029 59.6194 121.212 59.6194C116.808 59.6194 113.329 63.697 113.329 68.1006C118.603 68.1006 123.876 68.1006 129.149 68.1006ZM161.041 84.574C159.447 84.5735 157.852 84.5735 156.257 84.574C156.257 78.738 156.257 72.9027 156.257 67.0672C156.257 62.1198 154.844 59.6194 150.168 59.6194C147.449 59.6194 142.665 61.3588 142.665 69.0792C142.665 74.2438 142.665 79.4088 142.665 84.574C141.071 84.5735 139.476 84.5735 137.881 84.574C137.881 75.0954 137.881 65.6172 137.881 56.14C139.385 56.14 140.889 56.14 142.393 56.14C142.393 57.4812 142.393 58.8219 142.393 60.1631C142.429 60.1631 142.465 60.1631 142.503 60.1631C143.536 58.6412 146.199 55.324 151.092 55.324C155.496 55.324 161.041 57.1187 161.041 65.2188C161.041 71.6703 161.041 78.1219 161.041 84.574Z" fill="#7D7B7B"/>
<path fill-rule="evenodd" clip-rule="evenodd" d="M54.1027 85.6349C41.9516 85.6349 35.9765 78.2339 33.6469 70.5016C36.2771 83.0531 50.4912 95.3401 95.3375 100.821C137.707 105.999 165.319 93.0172 174.633 86.9755C174.633 86.9755 180.927 84.2068 177.151 88.4864C177.151 88.4864 150.467 113.156 98.1068 113.407C45.7464 113.659 4.21041 87.2276 4.46251 60.5437C4.21041 33.8613 45.7464 7.428 98.1068 7.68133C150.467 7.932 177.151 32.6027 177.151 32.6027C180.927 36.8813 174.633 34.112 174.633 34.112C165.319 28.0707 137.825 16.172 95.3375 20.2667C53.55 24.2947 39.9099 38.4933 35.3787 48.0587C33.6349 51.74 32.8469 55.2107 32.6495 58.7079C33.7787 49.5813 39.4516 38.8187 54.1027 38.8187C70.6989 38.8187 75.7765 52.628 75.7765 62.2271C75.7765 71.826 70.6989 85.6349 54.1027 85.6349ZM222.809 76.4083C230.179 76.4079 237.548 76.4079 244.917 76.4083C244.917 79.0916 244.917 81.7745 244.917 84.4583C234.452 84.4583 223.985 84.4583 213.52 84.4583C213.52 69.6369 213.52 54.816 213.52 39.9947C216.617 39.9947 219.713 39.9947 222.809 39.9947C222.809 52.1333 222.809 64.2703 222.809 76.4083ZM188.699 60.4927C194.891 60.4927 201.084 60.4927 207.276 60.4927C207.276 68.4807 207.276 76.4697 207.276 84.4583C205.212 84.4583 203.148 84.4583 201.084 84.4583C200.773 82.6005 200.464 80.7427 200.155 78.8855C197.801 81.6099 194.395 85.6349 186.283 85.6349C175.569 85.6349 165.848 77.9563 165.848 62.3511C165.848 50.2133 172.597 38.7573 187.584 38.8187C201.208 38.8187 206.595 47.6747 207.091 53.8053C203.995 53.8053 200.897 53.8053 197.801 53.8053C197.801 52.072 194.643 46.4973 188.079 46.4973C181.452 46.4973 175.323 51.0813 175.323 62.4749C175.323 74.6125 181.948 77.7708 188.265 77.7708C190.308 77.7708 197.12 76.9656 199.04 67.9864C195.593 67.986 192.145 67.986 188.699 67.9864C188.699 65.4885 188.699 62.9901 188.699 60.4927ZM54.1027 44.1453C44.4417 44.1453 38.6208 51.7613 38.6208 62.2271C38.6208 72.6927 44.4417 80.3093 54.1027 80.3093C63.7631 80.3093 69.5844 72.6927 69.5844 62.2271C69.5844 51.7613 63.7631 44.1453 54.1027 44.1453ZM79.1093 56.0253C80.614 56.0253 82.1183 56.0253 83.6224 56.0253C83.6229 57.3656 83.6229 58.7073 83.6224 60.0479C83.6588 60.0479 83.6948 60.0479 83.7307 60.0479C84.8724 58.4167 87.0469 55.2093 92.212 55.2093C99.7693 55.2093 105.155 61.614 105.155 69.6063C105.155 76.4027 101.237 85.274 91.5599 85.274C87.7541 85.274 85.2527 83.4803 84.0031 81.4688C83.9667 81.4683 83.9303 81.4683 83.8937 81.4688C83.8943 86.2161 83.8943 90.9645 83.8937 95.7131C82.2995 95.7125 80.7047 95.7125 79.1093 95.7131C79.1099 82.4828 79.1099 69.2536 79.1093 56.0253ZM91.1995 81.1421C96.4188 81.1421 99.9557 76.6197 99.9557 70.3677C99.9557 66.7249 98.4844 59.5047 91.0901 59.5047C84.186 59.5047 83.4245 66.9527 83.4245 71.5735C83.4245 79.1307 88.1547 81.1421 91.1995 81.1421ZM134.107 75.5421C133.944 76.9016 132.64 80.9249 129.051 83.3172C127.747 84.1869 125.898 85.274 121.332 85.274C113.34 85.274 108.609 79.2396 108.609 71.0303C108.609 62.2224 112.851 55.2093 122.256 55.2093C130.465 55.2093 134.488 61.7333 134.488 71.7912C127.566 71.7907 120.643 71.7907 113.72 71.7912C113.72 77.7172 116.493 81.1421 121.984 81.1421C126.496 81.1421 129.16 77.6631 129.323 75.5421C130.918 75.5416 132.513 75.5416 134.107 75.5421ZM129.037 67.9855C128.766 63.5817 126.917 59.5047 121.1 59.5047C116.696 59.5047 113.217 63.5817 113.217 67.9855C118.491 67.9849 123.764 67.9849 129.037 67.9855ZM160.929 84.4583C159.335 84.4583 157.74 84.4583 156.145 84.4583C156.145 78.6229 156.145 72.7875 156.145 66.9527C156.145 62.0047 154.731 59.5047 150.056 59.5047C147.337 59.5047 142.553 61.2437 142.553 68.964C142.553 74.1281 142.553 79.2932 142.553 84.4583C140.959 84.4583 139.364 84.4583 137.769 84.4583C137.769 74.9803 137.769 65.5021 137.769 56.0253C139.273 56.0253 140.777 56.0253 142.281 56.0253C142.281 57.3656 142.281 58.7073 142.281 60.0479C142.319 60.0479 142.353 60.0479 142.391 60.0479C143.423 58.526 146.088 55.2093 150.98 55.2093C155.384 55.2093 160.929 57.0027 160.929 65.1041C160.929 71.5552 160.929 78.0068 160.929 84.4583Z" fill="#777475"/>
<path fill-rule="evenodd" clip-rule="evenodd" d="M53.9907 85.5203C41.8396 85.5203 35.8646 78.1194 33.5344 70.3864C36.1656 82.9386 50.3798 95.225 95.2255 100.706C137.595 105.884 165.207 92.9027 174.52 86.861C174.52 86.861 180.813 84.0916 177.039 88.3708C177.039 88.3708 150.355 113.041 97.9943 113.292C45.6344 113.544 4.099 87.1131 4.35056 60.4292C4.099 33.7454 45.6344 7.3147 97.9943 7.56536C150.355 7.81736 177.039 32.4867 177.039 32.4867C180.813 36.7667 174.52 33.9974 174.52 33.9974C165.207 27.956 137.713 16.0574 95.2255 20.152C53.438 24.18 39.7979 38.3774 35.2667 47.944C33.523 51.624 32.735 55.096 32.5375 58.5927C33.6667 49.4667 39.3391 38.704 53.9907 38.704C70.587 38.704 75.6651 52.5134 75.6651 62.112C75.6651 71.7104 70.587 85.5203 53.9907 85.5203ZM222.697 76.2932C230.067 76.2927 237.436 76.2927 244.805 76.2932C244.805 78.976 244.805 81.6599 244.805 84.3438C234.34 84.3432 223.873 84.3432 213.409 84.3438C213.409 69.5219 213.409 54.7014 213.409 39.8814C216.505 39.8814 219.601 39.8814 222.697 39.8814C222.697 52.0187 222.697 64.1552 222.697 76.2932ZM188.587 60.3782C194.779 60.3782 200.972 60.3782 207.164 60.3782C207.164 68.3662 207.164 76.3547 207.164 84.3438C205.1 84.3432 203.036 84.3432 200.972 84.3438C200.661 82.4855 200.352 80.6276 200.043 78.7703C197.689 81.4948 194.284 85.5203 186.171 85.5203C175.457 85.5203 165.736 77.8412 165.736 62.2355C165.736 50.0987 172.485 38.6427 187.472 38.704C201.095 38.704 206.483 47.56 206.979 53.6907C203.883 53.6907 200.785 53.6907 197.689 53.6907C197.689 51.956 194.531 46.3827 187.967 46.3827C181.34 46.3827 175.209 50.9654 175.209 62.3594C175.209 74.4974 181.836 77.6558 188.152 77.6558C190.197 77.6558 197.008 76.8506 198.928 67.8708C195.481 67.8703 192.033 67.8703 188.587 67.8708C188.587 65.373 188.587 62.875 188.587 60.3782ZM53.9907 44.0294C44.3303 44.0294 38.5094 51.6467 38.5094 62.112C38.5094 72.5776 44.3303 80.1943 53.9907 80.1943C63.6516 80.1943 69.4724 72.5776 69.4724 62.112C69.4724 51.6467 63.6516 44.0294 53.9907 44.0294ZM78.9979 55.9094C80.5022 55.9094 82.0063 55.9094 83.5099 55.9094C83.5104 57.2507 83.5104 58.5922 83.5099 59.9328C83.547 59.9328 83.5828 59.9328 83.6188 59.9328C84.761 58.3022 86.935 55.0947 92.1 55.0947C99.6568 55.0947 105.043 61.4995 105.043 69.4916C105.043 76.287 101.125 85.1594 91.4479 85.1594C87.6418 85.1594 85.1412 83.3651 83.8907 81.3536C83.8547 81.3531 83.8183 81.3531 83.7818 81.3536C83.7823 86.1011 83.7823 90.8495 83.7818 95.5974C82.1875 95.5974 80.5927 95.5974 78.9979 95.5974C78.9979 82.3683 78.9979 69.138 78.9979 55.9094ZM91.0875 81.0271C96.3063 81.0271 99.8443 76.5047 99.8443 70.2527C99.8443 66.6099 98.373 59.3891 90.9787 59.3891C84.074 59.3891 83.3131 66.837 83.3131 71.4583C83.3131 79.0156 88.0427 81.0271 91.0875 81.0271ZM133.995 75.4271C133.832 76.7864 132.528 80.8099 128.939 83.2022C127.634 84.0714 125.786 85.1594 121.22 85.1594C113.228 85.1594 108.498 79.1246 108.498 70.9151C108.498 62.1074 112.739 55.0947 122.144 55.0947C130.353 55.0947 134.376 61.6183 134.376 71.676C127.454 71.6755 120.531 71.6755 113.608 71.676C113.608 77.6022 116.381 81.0271 121.872 81.0271C126.384 81.0271 129.048 77.5479 129.211 75.4271C130.806 75.4271 132.401 75.4271 133.995 75.4271ZM128.925 67.8703C128.654 63.4667 126.805 59.3891 120.988 59.3891C116.584 59.3891 113.105 63.4667 113.105 67.8703C118.379 67.8703 123.652 67.8703 128.925 67.8703ZM160.817 84.3438C159.223 84.3432 157.628 84.3432 156.033 84.3438C156.033 78.5079 156.033 72.6724 156.033 66.837C156.033 61.8896 154.62 59.3891 149.944 59.3891C147.225 59.3891 142.441 61.1287 142.441 68.849C142.441 74.0136 142.441 79.1787 142.441 84.3438C140.847 84.3432 139.252 84.3432 137.657 84.3438C137.657 74.8651 137.657 65.387 137.657 55.9094C139.161 55.9094 140.665 55.9094 142.169 55.9094C142.169 57.2507 142.169 58.5922 142.169 59.9328C142.205 59.9328 142.243 59.9328 142.279 59.9328C143.312 58.411 145.976 55.0947 150.868 55.0947C155.272 55.0947 160.817 56.888 160.817 64.9886C160.817 71.4402 160.817 77.8916 160.817 84.3438Z" fill="#706D6E"/>
<path fill-rule="evenodd" clip-rule="evenodd" d="M53.8787 85.4052C41.7276 85.4052 35.7522 78.0041 33.4224 70.2719C36.0536 82.8235 50.2678 95.1104 95.1136 100.592C137.484 105.77 165.095 92.7875 174.408 86.7459C174.408 86.7459 180.701 83.9771 176.927 88.2568C176.927 88.2568 150.243 112.926 97.8823 113.178C45.5224 113.43 3.9865 86.9979 4.23808 60.314C3.9865 33.6307 45.5224 7.19867 97.8823 7.45067C150.243 7.70267 176.927 32.372 176.927 32.372C180.701 36.652 174.408 33.8827 174.408 33.8827C165.095 27.8413 137.601 15.9427 95.1136 20.0373C53.326 24.0653 39.686 38.2627 35.1547 47.828C33.411 51.5093 32.623 54.9813 32.4255 58.4781C33.5547 49.3507 39.2271 38.5893 53.8787 38.5893C70.4751 38.5893 75.5531 52.3987 75.5531 61.9973C75.5531 71.5959 70.4751 85.4052 53.8787 85.4052ZM222.585 76.1781C229.955 76.1781 237.324 76.1781 244.693 76.1781C244.693 78.862 244.693 81.5448 244.693 84.2287C234.228 84.2281 223.761 84.2281 213.296 84.2287C213.296 69.4073 213.296 54.5867 213.296 39.7653C216.393 39.7653 219.489 39.7653 222.585 39.7653C222.585 51.904 222.585 64.0407 222.585 76.1781ZM188.475 60.2631C194.667 60.2631 200.86 60.2631 207.052 60.2631C207.052 68.2511 207.052 76.2401 207.052 84.2287C204.988 84.2281 202.924 84.2281 200.86 84.2287C200.551 82.3708 200.24 80.5131 199.931 78.6552C197.577 81.3803 194.172 85.4052 186.06 85.4052C175.345 85.4052 165.624 77.7265 165.624 62.1208C165.624 49.9827 172.373 38.5267 187.36 38.5893C200.984 38.5893 206.372 47.444 206.867 53.576C203.771 53.576 200.673 53.576 197.577 53.576C197.577 51.8413 194.419 46.268 187.855 46.268C181.229 46.268 175.099 50.8507 175.099 62.2453C175.099 74.3828 181.724 77.5407 188.04 77.5407C190.085 77.5407 196.897 76.736 198.816 67.7563C195.369 67.7563 191.921 67.7563 188.475 67.7563C188.475 65.2583 188.475 62.7604 188.475 60.2631ZM53.8787 43.9147C44.2183 43.9147 38.397 51.532 38.397 61.9973C38.397 72.4625 44.2183 80.0797 53.8787 80.0797C63.5396 80.0797 69.3604 72.4625 69.3604 61.9973C69.3604 51.532 63.5396 43.9147 53.8787 43.9147ZM78.8855 55.7947C80.3907 55.7947 81.8943 55.7947 83.3984 55.7947C83.3984 57.136 83.3984 58.4771 83.3984 59.8183C83.435 59.8183 83.4708 59.8183 83.5068 59.8183C84.649 58.1869 86.8235 54.9787 91.9886 54.9787C99.5454 54.9787 104.931 61.3844 104.931 69.3765C104.931 76.1724 101.013 85.0443 91.3355 85.0443C87.5303 85.0443 85.0292 83.25 83.7787 81.2385C83.7427 81.2385 83.7068 81.2385 83.6698 81.2385C83.6703 85.9864 83.6703 90.7344 83.6698 95.4828C82.0755 95.4828 80.4807 95.4828 78.8855 95.4828C78.886 82.2531 78.886 69.0235 78.8855 55.7947ZM90.9755 80.912C96.1948 80.912 99.7323 76.3901 99.7323 70.138C99.7323 66.4953 98.2604 59.2749 90.8667 59.2749C83.962 59.2749 83.2006 66.7229 83.2006 71.3437C83.2006 78.9011 87.9307 80.912 90.9755 80.912ZM133.884 75.3125C133.72 76.6713 132.416 80.6953 128.828 83.0875C127.522 83.9568 125.675 85.0443 121.108 85.0443C113.116 85.0443 108.386 79.0093 108.386 70.8C108.386 61.9927 112.627 54.9787 122.032 54.9787C130.241 54.9787 134.264 61.5036 134.264 71.5615C127.342 71.5609 120.419 71.5609 113.496 71.5615C113.496 77.4869 116.269 80.912 121.76 80.912C126.272 80.912 128.936 77.4333 129.099 75.3125C130.694 75.312 132.289 75.312 133.884 75.3125ZM128.814 67.7557C128.542 63.3516 126.693 59.2749 120.876 59.2749C116.472 59.2749 112.993 63.3516 112.993 67.7557C118.267 67.7552 123.54 67.7552 128.814 67.7557ZM160.705 84.2287C159.111 84.2281 157.516 84.2281 155.921 84.2287C155.921 78.3932 155.921 72.5573 155.921 66.7229C155.921 61.7749 154.508 59.2749 149.832 59.2749C147.113 59.2749 142.329 61.014 142.329 68.7344C142.329 73.8984 142.329 79.0636 142.329 84.2287C140.735 84.2281 139.14 84.2281 137.545 84.2287C137.545 74.7505 137.545 65.2724 137.545 55.7947C139.049 55.7947 140.553 55.7947 142.057 55.7947C142.057 57.136 142.057 58.4771 142.057 59.8183C142.093 59.8183 142.129 59.8183 142.167 59.8183C143.199 58.2964 145.863 54.9787 150.756 54.9787C155.16 54.9787 160.705 56.7733 160.705 64.874C160.705 71.3255 160.705 77.7771 160.705 84.2287Z" fill="#6C696A"/>
<path fill-rule="evenodd" clip-rule="evenodd" d="M53.7662 85.2907C41.6151 85.2907 35.6402 77.8896 33.3104 70.1573C35.9412 82.7088 50.1552 94.9953 95.0016 100.477C137.372 105.655 164.983 92.6729 174.296 86.6312C174.296 86.6312 180.591 83.8625 176.813 88.1416C176.813 88.1416 150.131 112.811 97.7703 113.063C45.4099 113.315 3.87452 86.8833 4.12608 60.1995C3.87452 33.516 45.4099 7.08401 97.7703 7.33601C150.131 7.58801 176.813 32.2573 176.813 32.2573C180.591 36.5373 174.296 33.768 174.296 33.768C164.983 27.7267 137.489 15.8267 95.0016 19.9227C53.2136 23.9493 39.5735 38.148 35.0427 47.7133C33.2984 51.3947 32.5104 54.8667 32.3136 58.3625C33.4422 49.236 39.1151 38.4733 53.7662 38.4733C70.3626 38.4733 75.4407 52.284 75.4407 61.8828C75.4407 71.4812 70.3626 85.2907 53.7662 85.2907ZM222.473 76.064H244.581V84.114H213.184V39.6507H222.473V76.064ZM188.363 60.1484H206.94V84.114H200.748L199.819 78.5412C197.465 81.2656 194.06 85.2907 185.947 85.2907C175.233 85.2907 165.512 77.612 165.512 62.0063C165.512 49.8693 172.261 38.412 187.248 38.4733C200.872 38.4733 206.26 47.3293 206.755 53.46H197.465C197.465 51.7267 194.307 46.1533 187.743 46.1533C181.117 46.1533 174.987 50.736 174.987 62.1303C174.987 74.2677 181.612 77.4265 187.929 77.4265C189.972 77.4265 196.784 76.6208 198.704 67.6416H188.363V60.1484ZM53.7662 43.8C44.1058 43.8 38.2844 51.4173 38.2844 61.8828C38.2844 72.3479 44.1058 79.9651 53.7662 79.9651C63.4266 79.9651 69.2479 72.3479 69.2479 61.8828C69.2479 51.4173 63.4266 43.8 53.7662 43.8ZM78.773 55.68H83.286V59.7031H83.3943C84.5364 58.0719 86.7104 54.864 91.8755 54.864C99.4328 54.864 104.819 61.2697 104.819 69.262C104.819 76.0579 100.901 84.9297 91.2235 84.9297C87.4178 84.9297 84.9167 83.136 83.6667 81.124H83.5574V95.3683H78.773V55.68ZM90.8631 80.7979C96.0823 80.7979 99.6198 76.2755 99.6198 70.0229C99.6198 66.3803 98.1479 59.1593 90.7542 59.1593C83.85 59.1593 83.088 66.6079 83.088 71.2292C83.088 78.786 87.8183 80.7979 90.8631 80.7979ZM133.772 75.1979C133.608 76.5568 132.304 80.5803 128.715 82.9724C127.41 83.8421 125.562 84.9297 120.995 84.9297C113.004 84.9297 108.273 78.8948 108.273 70.6855C108.273 61.8776 112.514 54.864 121.919 54.864C130.129 54.864 134.152 61.3885 134.152 71.4469H113.384C113.384 77.3724 116.156 80.7979 121.648 80.7979C126.16 80.7979 128.824 77.3183 128.987 75.1979H133.772ZM128.701 67.6407C128.429 63.2369 126.581 59.1593 120.764 59.1593C116.36 59.1593 112.88 63.2369 112.88 67.6407H128.701ZM160.593 84.114H155.809V66.6079C155.809 61.6604 154.395 59.1593 149.72 59.1593C147.001 59.1593 142.217 60.8989 142.217 68.6193V84.114H137.433V55.68H141.945V59.7031H142.055C143.087 58.1807 145.752 54.864 150.644 54.864C155.048 54.864 160.593 56.6587 160.593 64.7593V84.114Z" fill="#656263"/>
<path fill-rule="evenodd" clip-rule="evenodd" d="M53.7662 86.2907C41.6151 86.2907 35.6402 78.8896 33.3104 71.1573C35.9412 83.7088 50.1552 95.9953 95.0016 101.477C137.372 106.655 164.983 93.6729 174.296 87.6312C174.296 87.6312 180.591 84.8625 176.813 89.1416C176.813 89.1416 150.131 113.811 97.7703 114.063C45.4099 114.315 3.87452 87.8833 4.12608 61.1995C3.87452 34.516 45.4099 8.08401 97.7703 8.33601C150.131 8.58801 176.813 33.2573 176.813 33.2573C180.591 37.5373 174.296 34.768 174.296 34.768C164.983 28.7267 137.489 16.8267 95.0016 20.9227C53.2136 24.9493 39.5735 39.148 35.0427 48.7133C33.2984 52.3947 32.5104 55.8667 32.3136 59.3625C33.4422 50.236 39.1151 39.4733 53.7662 39.4733C70.3626 39.4733 75.4407 53.284 75.4407 62.8828C75.4407 72.4812 70.3626 86.2907 53.7662 86.2907ZM222.473 77.064H244.581V85.114H213.184V40.6507H222.473V77.064ZM188.363 61.1484H206.94V85.114H200.748L199.819 79.5412C197.465 82.2656 194.06 86.2907 185.947 86.2907C175.233 86.2907 165.512 78.612 165.512 63.0063C165.512 50.8693 172.261 39.412 187.248 39.4733C200.872 39.4733 206.26 48.3293 206.755 54.46H197.465C197.465 52.7267 194.307 47.1533 187.743 47.1533C181.117 47.1533 174.987 51.736 174.987 63.1303C174.987 75.2677 181.612 78.4265 187.929 78.4265C189.972 78.4265 196.784 77.6208 198.704 68.6416H188.363V61.1484ZM53.7662 44.8C44.1058 44.8 38.2844 52.4173 38.2844 62.8828C38.2844 73.3479 44.1058 80.9651 53.7662 80.9651C63.4266 80.9651 69.2479 73.3479 69.2479 62.8828C69.2479 52.4173 63.4266 44.8 53.7662 44.8ZM78.773 56.68H83.286V60.7031H83.3943C84.5364 59.0719 86.7104 55.864 91.8755 55.864C99.4328 55.864 104.819 62.2697 104.819 70.262C104.819 77.0579 100.901 85.9297 91.2235 85.9297C87.4178 85.9297 84.9167 84.136 83.6667 82.124H83.5574V96.3683H78.773V56.68ZM90.8631 81.7979C96.0823 81.7979 99.6198 77.2755 99.6198 71.0229C99.6198 67.3803 98.1479 60.1593 90.7542 60.1593C83.85 60.1593 83.088 67.6079 83.088 72.2292C83.088 79.786 87.8183 81.7979 90.8631 81.7979ZM133.772 76.1979C133.608 77.5568 132.304 81.5803 128.715 83.9724C127.41 84.8421 125.562 85.9297 120.995 85.9297C113.004 85.9297 108.273 79.8948 108.273 71.6855C108.273 62.8776 112.514 55.864 121.919 55.864C130.129 55.864 134.152 62.3885 134.152 72.4469H113.384C113.384 78.3724 116.156 81.7979 121.648 81.7979C126.16 81.7979 128.824 78.3183 128.987 76.1979H133.772ZM128.701 68.6407C128.429 64.2369 126.581 60.1593 120.764 60.1593C116.36 60.1593 112.88 64.2369 112.88 68.6407H128.701ZM160.593 85.114H155.809V67.6079C155.809 62.6604 154.395 60.1593 149.72 60.1593C147.001 60.1593 142.217 61.8989 142.217 69.6193V85.114H137.433V56.68H141.945V60.7031H142.055C143.087 59.1807 145.752 55.864 150.644 55.864C155.048 55.864 160.593 57.6587 160.593 65.7593V85.114Z" fill="#4386B5"/>
</svg>
